#N canvas 2813 130 840 735 10;
#N canvas 611 229 579 466 interface 0;
#X obj 100 222 cnv 15 100 120 empty empty OSC 8 12 1 14 -258699 -262144
0;
#X obj 201 222 cnv 15 200 120 empty empty AMP 8 12 1 14 -260818 -262144
0;
#X obj 101 101 cnv 15 300 120 empty empty FILTER 8 12 1 14 -62784 -262144
0;
#X obj 322 256 vsl 12 60 0 0.3 0 0 empty empty L 0 -8 1 8 -262144 -1
-262144 0 1;
#X obj 285 133 vsl 12 60 0 2000 0 0 empty empty LEV 0 -8 1 8 -262144
-1 -262144 0 1;
#X obj 116 133 vsl 12 60 0 2000 0 1 empty empty A 0 -8 1 8 -262144
-1 -262144 1500 1;
#X obj 156 133 vsl 12 60 0 2000 0 1 empty empty D 0 -8 1 8 -262144
-1 -262144 5900 1;
#X obj 246 133 vsl 12 60 0 3000 0 0 empty empty AMT 0 -8 1 8 -262144
-1 -262144 0 1;
#X obj 157 255 vsl 12 60 0 1 0 0 empty empty FAT 0 -8 1 8 -262144 -1
-262144 0 1;
#X obj 324 133 vsl 12 60 0.5 6 0 0 empty empty RES 0 -8 1 8 -262144
-33289 -262144 0 1;
#X obj 244 256 vsl 12 60 0 2000 0 1 empty empty A 0 -8 1 8 -262144
-1 -262144 3100 1;
#X obj 283 256 vsl 12 60 0 2000 0 1 empty empty D 0 -8 1 8 -262144
-1 -262144 5900 1;
#X obj 53 389 s \$0-oscf;
#X obj 130 390 s \$0-oscfat;
#X obj 54 360 s \$0-fenva;
#X obj 131 359 s \$0-fenvd;
#X obj 217 390 s \$0-aenva;
#X obj 295 390 s \$0-aenvd;
#X obj 374 390 s \$0-amp;
#X obj 377 358 s \$0-fres;
#X obj 218 360 s \$0-frng;
#X obj 298 359 s \$0-frle;
#X obj 322 324 nbx 3 14 -1e+37 1e+37 0 0 empty empty empty 0 -6 0 10
-260818 -1 -1 0 256;
#X obj 283 324 nbx 3 14 -1e+37 1e+37 0 0 empty empty empty 0 -6 0 10
-260818 -1 -1 2000 256;
#X obj 244 324 nbx 3 14 -1e+37 1e+37 0 0 empty empty empty 0 -6 0 10
-260818 -1 -1 1050.85 256;
#X obj 157 321 nbx 3 14 -1e+37 1e+37 0 0 empty empty empty 0 -6 0 10
-258699 -262144 -1 0 256;
#X obj 112 322 nbx 3 14 -1e+37 1e+37 0 0 empty empty empty 0 -6 0 10
-258699 -262144 -1 0 256;
#X obj 324 203 nbx 3 14 -1e+37 1e+37 0 0 empty empty empty 0 -6 0 10
-62784 -262144 -1 0 256;
#X obj 285 203 nbx 3 14 -1e+37 1e+37 0 0 empty empty empty 0 -6 0 10
-62784 -262144 -1 0 256;
#X obj 246 203 nbx 3 14 -1e+37 1e+37 0 0 empty empty empty 0 -6 0 10
-62784 -262144 -1 0 256;
#X obj 156 203 nbx 3 14 -1e+37 1e+37 0 0 empty empty empty 0 -6 0 10
-62784 -262144 -1 2000 256;
#X obj 116 203 nbx 3 14 -1e+37 1e+37 0 0 empty empty empty 0 -6 0 10
-62784 -262144 -1 508.475 256;
#X obj 112 254 vradio 12 1 0 5 empty empty OCT 0 -6 1 8 -262144 -1
-262144 0;
#X obj 284 38 r ampDecay;
#X obj 156 39 r filterDecay;
#X connect 3 0 18 0;
#X connect 3 0 22 0;
#X connect 4 0 21 0;
#X connect 4 0 28 0;
#X connect 5 0 14 0;
#X connect 5 0 31 0;
#X connect 6 0 15 0;
#X connect 6 0 30 0;
#X connect 7 0 20 0;
#X connect 7 0 29 0;
#X connect 8 0 13 0;
#X connect 8 0 25 0;
#X connect 9 0 19 0;
#X connect 9 0 27 0;
#X connect 10 0 16 0;
#X connect 10 0 24 0;
#X connect 11 0 17 0;
#X connect 11 0 23 0;
#X connect 32 0 26 0;
#X connect 32 0 12 0;
#X connect 33 0 11 0;
#X connect 34 0 6 0;
#X coords 0 -1 1 1 300 240 1 100 100;
#X restore 42 441 pd interface;
#X obj 331 198 hsl 128 15 0 127 0 0 empty empty empty -2 -8 0 10 -262144
-1 -1 6000 1;
#X obj 73 52 bng 15 250 50 0 empty M empty 17 7 0 10 -262144 -1 -1
;
#X text 102 48 M;
#X obj 187 52 bng 15 250 50 0 empty m empty 17 7 0 10 -262144 -1 -1
;
#X obj 301 52 bng 15 250 50 0 empty M7 empty 17 7 0 10 -262144 -1 -1
;
#X obj 431 49 bng 15 250 50 0 empty m7 empty 17 7 0 10 -262144 -1 -1
;
#X obj 544 48 bng 15 250 50 0 empty 7 empty 17 7 0 10 -262144 -1 -1
;
#X text 216 48 m;
#X text 330 48 M7;
#X text 460 45 m7;
#X text 573 44 7;
#X obj 337 172 r midiNote;
#X obj 641 48 bng 15 250 50 0 empty dim empty 17 7 0 10 -262144 -1
-1;
#X text 670 44 dim;
#N canvas 2148 59 450 300 mutex 0;
#X obj 120 75 i;
#X obj 120 96 + 1;
#X obj 114 23 inlet;
#X obj 120 143 select 0 1 2 3;
#X obj 120 119 % 4;
#X obj 41 263 s 1M;
#X obj 136 263 s 2M;
#X obj 203 261 s 3M;
#X obj 260 261 s 4M;
#X connect 0 0 1 0;
#X connect 1 0 0 1;
#X connect 1 0 4 0;
#X connect 2 0 0 0;
#X connect 3 0 5 0;
#X connect 3 1 6 0;
#X connect 3 2 7 0;
#X connect 3 3 8 0;
#X connect 4 0 3 0;
#X restore 73 75 pd mutex;
#N canvas 1994 417 976 558 chord 0;
#X msg 113 113 4;
#X msg 158 112 7;
#X msg 201 110 0;
#N canvas 1460 273 450 300 sum~ 0;
#X obj 60 24 inlet~;
#X obj 137 24 inlet~;
#X obj 215 23 inlet~;
#X obj 299 21 inlet~;
#X obj 114 102 +~;
#X obj 267 102 +~;
#X obj 187 149 +~;
#X obj 188 191 outlet~;
#X obj 59 57 *~ 0.5;
#X obj 148 57 *~ 0.5;
#X obj 214 56 *~ 0.5;
#X obj 298 54 *~ 0.5;
#X connect 0 0 8 0;
#X connect 1 0 9 0;
#X connect 2 0 10 0;
#X connect 3 0 11 0;
#X connect 4 0 6 0;
#X connect 5 0 6 1;
#X connect 6 0 7 0;
#X connect 8 0 4 0;
#X connect 9 0 4 1;
#X connect 10 0 5 0;
#X connect 11 0 5 1;
#X restore 293 422 pd sum~;
#X msg 290 109 7;
#X msg 332 108 0;
#X msg 381 108 4;
#X msg 426 107 7;
#X msg 563 104 7;
#X msg 694 104 7;
#X msg 245 110 3;
#X msg 469 107 11;
#X msg 518 105 3;
#X msg 605 103 10;
#X msg 652 104 4;
#X msg 739 102 10;
#X obj 228 185 f;
#X obj 338 187 f;
#X obj 457 188 f;
#X obj 121 82 t b b b;
#X obj 289 276 +;
#X obj 342 274 +;
#X obj 395 274 +;
#X obj 271 79 t b b b;
#X obj 421 77 t b b b;
#X obj 551 76 t b b b;
#X obj 679 75 t b b b;
#N canvas 991 136 471 666 synth1 0;
#X obj 163 577 *~ 0.2;
#X obj 162 463 bp~ 100 3;
#X obj 162 489 hip~ 60;
#N canvas 0 86 450 300 envelope 0;
#X obj 175 243 line;
#X msg 194 219 1 \$1;
#X msg 150 218 0 \$1;
#X obj 150 146 t b b;
#X obj 175 267 outlet;
#X obj 187 46 inlet attack;
#X obj 289 45 inlet decay;
#X obj 77 46 inlet trigger;
#X obj 187 87 t f f;
#X obj 150 196 f 50;
#X obj 194 197 f 50;
#X text 235 199 <-- default values 50 ms;
#X text 236 88 <-- set floats nicely;
#X obj 150 173 del 50;
#X text 151 9 envelope subpatch;
#X connect 0 0 4 0;
#X connect 1 0 0 0;
#X connect 2 0 0 0;
#X connect 3 0 13 0;
#X connect 3 1 10 0;
#X connect 5 0 8 0;
#X connect 6 0 9 1;
#X connect 7 0 3 0;
#X connect 8 0 13 1;
#X connect 8 1 10 1;
#X connect 9 0 2 0;
#X connect 10 0 1 0;
#X connect 13 0 9 0;
#X restore 191 303 pd envelope;
#X obj 191 371 * 3000;
#N canvas 0 50 450 300 fatoscillator 0;
#X obj 113 206 +~;
#X obj 61 165 -~ 0.5;
#X obj 147 164 -~ 0.5;
#X obj 60 8 inlet pitch;
#X obj 146 108 +;
#X obj 60 109 -;
#X obj 149 7 inlet fatness;
#X obj 149 31 * 5;
#X obj 112 238 outlet~;
#X obj 60 137 phasor~ 55;
#X obj 146 136 phasor~ 55;
#X obj 149 53 t b b f f;
#X connect 0 0 8 0;
#X connect 1 0 0 0;
#X connect 2 0 0 1;
#X connect 3 0 5 0;
#X connect 3 0 4 0;
#X connect 4 0 10 0;
#X connect 5 0 9 0;
#X connect 6 0 7 0;
#X connect 7 0 11 0;
#X connect 9 0 1 0;
#X connect 10 0 2 0;
#X connect 11 0 5 0;
#X connect 11 1 4 0;
#X connect 11 2 5 1;
#X connect 11 3 4 1;
#X restore 162 240 pd fatoscillator;
#X obj 201 414 t b f;
#X obj 199 347 t b f;
#X obj 191 438 + 20;
#N canvas 491 129 450 300 envelope 0;
#X obj 175 243 line;
#X msg 194 219 1 \$1;
#X msg 150 218 0 \$1;
#X obj 150 146 t b b;
#X obj 175 267 outlet;
#X obj 187 46 inlet attack;
#X obj 289 45 inlet decay;
#X obj 77 46 inlet trigger;
#X obj 187 87 t f f;
#X obj 150 196 f 50;
#X obj 194 197 f 50;
#X text 235 199 <-- default values 50 ms;
#X text 236 88 <-- set floats nicely;
#X obj 150 173 del 50;
#X text 151 9 envelope subpatch;
#X connect 0 0 4 0;
#X connect 1 0 0 0;
#X connect 2 0 0 0;
#X connect 3 0 13 0;
#X connect 3 1 10 0;
#X connect 5 0 8 0;
#X connect 6 0 9 1;
#X connect 7 0 3 0;
#X connect 8 0 13 1;
#X connect 8 1 10 1;
#X connect 9 0 2 0;
#X connect 10 0 1 0;
#X connect 13 0 9 0;
#X restore 179 517 pd envelope;
#X obj 163 540 *~;
#X obj 162 90 r \$0-oscf;
#X obj 269 213 r \$0-oscfat;
#X obj 227 277 r \$0-fenva;
#X obj 264 256 r \$0-fenvd;
#X obj 215 482 r \$0-aenva;
#X obj 251 458 r \$0-aenvd;
#X obj 200 552 r \$0-amp;
#X obj 226 438 r \$0-fres;
#X obj 199 325 r \$0-frng;
#X obj 201 393 r \$0-frle;
#X obj 162 607 outlet~;
#X obj 231 64 inlet;
#X obj 261 172 t b b;
#X obj 231 89 t f b;
#X obj 162 215 mtof;
#X obj 162 139 * 12;
#X obj 162 192 +;
#X obj 162 115 - 2;
#X obj 171 162 t b f;
#X text -29 140 times 12 to get octaves ->;
#X text -30 113 offset for negative ----->;
#X text -31 85 octave shift in --------->;
#X text -27 213 midi convert ------------>;
#X text -29 189 add to incomming note --->;
#X connect 0 0 21 0;
#X connect 1 0 2 0;
#X connect 2 0 10 0;
#X connect 3 0 4 0;
#X connect 4 0 8 0;
#X connect 5 0 1 0;
#X connect 6 0 8 0;
#X connect 6 1 8 1;
#X connect 7 0 4 0;
#X connect 7 1 4 1;
#X connect 8 0 1 1;
#X connect 9 0 10 1;
#X connect 10 0 0 0;
#X connect 11 0 28 0;
#X connect 12 0 5 1;
#X connect 13 0 3 1;
#X connect 14 0 3 2;
#X connect 15 0 9 1;
#X connect 16 0 9 2;
#X connect 17 0 0 1;
#X connect 18 0 1 2;
#X connect 19 0 7 0;
#X connect 20 0 6 0;
#X connect 22 0 24 0;
#X connect 23 0 9 0;
#X connect 23 1 3 0;
#X connect 24 0 29 0;
#X connect 24 1 23 0;
#X connect 25 0 5 0;
#X connect 26 0 27 0;
#X connect 27 0 25 0;
#X connect 28 0 26 0;
#X connect 29 0 27 0;
#X connect 29 1 27 1;
#X restore 179 339 pd synth1;
#N canvas 102 107 471 666 synth1 0;
#X obj 163 577 *~ 0.2;
#X obj 162 463 bp~ 100 3;
#X obj 162 489 hip~ 60;
#N canvas 0 50 450 300 envelope 0;
#X obj 175 243 line;
#X msg 194 219 1 \$1;
#X msg 150 218 0 \$1;
#X obj 150 146 t b b;
#X obj 175 267 outlet;
#X obj 187 46 inlet attack;
#X obj 289 45 inlet decay;
#X obj 77 46 inlet trigger;
#X obj 187 87 t f f;
#X obj 150 196 f 50;
#X obj 194 197 f 50;
#X text 235 199 <-- default values 50 ms;
#X text 236 88 <-- set floats nicely;
#X obj 150 173 del 50;
#X text 151 9 envelope subpatch;
#X connect 0 0 4 0;
#X connect 1 0 0 0;
#X connect 2 0 0 0;
#X connect 3 0 13 0;
#X connect 3 1 10 0;
#X connect 5 0 8 0;
#X connect 6 0 9 1;
#X connect 7 0 3 0;
#X connect 8 0 13 1;
#X connect 8 1 10 1;
#X connect 9 0 2 0;
#X connect 10 0 1 0;
#X connect 13 0 9 0;
#X restore 191 303 pd envelope;
#X obj 191 371 * 3000;
#N canvas 0 50 450 300 fatoscillator 0;
#X obj 113 206 +~;
#X obj 61 165 -~ 0.5;
#X obj 147 164 -~ 0.5;
#X obj 60 8 inlet pitch;
#X obj 146 108 +;
#X obj 60 109 -;
#X obj 149 7 inlet fatness;
#X obj 149 31 * 5;
#X obj 112 238 outlet~;
#X obj 60 137 phasor~ 55;
#X obj 146 136 phasor~ 55;
#X obj 149 53 t b b f f;
#X connect 0 0 8 0;
#X connect 1 0 0 0;
#X connect 2 0 0 1;
#X connect 3 0 5 0;
#X connect 3 0 4 0;
#X connect 4 0 10 0;
#X connect 5 0 9 0;
#X connect 6 0 7 0;
#X connect 7 0 11 0;
#X connect 9 0 1 0;
#X connect 10 0 2 0;
#X connect 11 0 5 0;
#X connect 11 1 4 0;
#X connect 11 2 5 1;
#X connect 11 3 4 1;
#X restore 162 240 pd fatoscillator;
#X obj 201 414 t b f;
#X obj 199 347 t b f;
#X obj 191 438 + 20;
#N canvas 0 50 450 300 envelope 0;
#X obj 175 243 line;
#X msg 194 219 1 \$1;
#X msg 150 218 0 \$1;
#X obj 150 146 t b b;
#X obj 175 267 outlet;
#X obj 187 46 inlet attack;
#X obj 289 45 inlet decay;
#X obj 77 46 inlet trigger;
#X obj 187 87 t f f;
#X obj 150 196 f 50;
#X obj 194 197 f 50;
#X text 235 199 <-- default values 50 ms;
#X text 236 88 <-- set floats nicely;
#X obj 150 173 del 50;
#X text 151 9 envelope subpatch;
#X connect 0 0 4 0;
#X connect 1 0 0 0;
#X connect 2 0 0 0;
#X connect 3 0 13 0;
#X connect 3 1 10 0;
#X connect 5 0 8 0;
#X connect 6 0 9 1;
#X connect 7 0 3 0;
#X connect 8 0 13 1;
#X connect 8 1 10 1;
#X connect 9 0 2 0;
#X connect 10 0 1 0;
#X connect 13 0 9 0;
#X restore 179 517 pd envelope;
#X obj 163 540 *~;
#X obj 162 90 r \$0-oscf;
#X obj 269 213 r \$0-oscfat;
#X obj 227 277 r \$0-fenva;
#X obj 264 256 r \$0-fenvd;
#X obj 215 482 r \$0-aenva;
#X obj 251 458 r \$0-aenvd;
#X obj 200 552 r \$0-amp;
#X obj 226 438 r \$0-fres;
#X obj 199 325 r \$0-frng;
#X obj 201 393 r \$0-frle;
#X obj 162 607 outlet~;
#X obj 231 64 inlet;
#X obj 261 172 t b b;
#X obj 231 89 t f b;
#X obj 162 215 mtof;
#X obj 162 139 * 12;
#X obj 162 192 +;
#X obj 162 115 - 2;
#X obj 171 162 t b f;
#X text -29 140 times 12 to get octaves ->;
#X text -30 113 offset for negative ----->;
#X text -31 85 octave shift in --------->;
#X text -27 213 midi convert ------------>;
#X text -29 189 add to incomming note --->;
#X connect 0 0 21 0;
#X connect 1 0 2 0;
#X connect 2 0 10 0;
#X connect 3 0 4 0;
#X connect 4 0 8 0;
#X connect 5 0 1 0;
#X connect 6 0 8 0;
#X connect 6 1 8 1;
#X connect 7 0 4 0;
#X connect 7 1 4 1;
#X connect 8 0 1 1;
#X connect 9 0 10 1;
#X connect 10 0 0 0;
#X connect 11 0 28 0;
#X connect 12 0 5 1;
#X connect 13 0 3 1;
#X connect 14 0 3 2;
#X connect 15 0 9 1;
#X connect 16 0 9 2;
#X connect 17 0 0 1;
#X connect 18 0 1 2;
#X connect 19 0 7 0;
#X connect 20 0 6 0;
#X connect 22 0 24 0;
#X connect 23 0 9 0;
#X connect 23 1 3 0;
#X connect 24 0 29 0;
#X connect 24 1 23 0;
#X connect 25 0 5 0;
#X connect 26 0 27 0;
#X connect 27 0 25 0;
#X connect 28 0 26 0;
#X connect 29 0 27 0;
#X connect 29 1 27 1;
#X restore 261 338 pd synth1;
#N canvas 102 107 471 666 synth1 0;
#X obj 163 577 *~ 0.2;
#X obj 162 463 bp~ 100 3;
#X obj 162 489 hip~ 60;
#N canvas 0 50 450 300 envelope 0;
#X obj 175 243 line;
#X msg 194 219 1 \$1;
#X msg 150 218 0 \$1;
#X obj 150 146 t b b;
#X obj 175 267 outlet;
#X obj 187 46 inlet attack;
#X obj 289 45 inlet decay;
#X obj 77 46 inlet trigger;
#X obj 187 87 t f f;
#X obj 150 196 f 50;
#X obj 194 197 f 50;
#X text 235 199 <-- default values 50 ms;
#X text 236 88 <-- set floats nicely;
#X obj 150 173 del 50;
#X text 151 9 envelope subpatch;
#X connect 0 0 4 0;
#X connect 1 0 0 0;
#X connect 2 0 0 0;
#X connect 3 0 13 0;
#X connect 3 1 10 0;
#X connect 5 0 8 0;
#X connect 6 0 9 1;
#X connect 7 0 3 0;
#X connect 8 0 13 1;
#X connect 8 1 10 1;
#X connect 9 0 2 0;
#X connect 10 0 1 0;
#X connect 13 0 9 0;
#X restore 191 303 pd envelope;
#X obj 191 371 * 3000;
#N canvas 0 50 450 300 fatoscillator 0;
#X obj 113 206 +~;
#X obj 61 165 -~ 0.5;
#X obj 147 164 -~ 0.5;
#X obj 60 8 inlet pitch;
#X obj 146 108 +;
#X obj 60 109 -;
#X obj 149 7 inlet fatness;
#X obj 149 31 * 5;
#X obj 112 238 outlet~;
#X obj 60 137 phasor~ 55;
#X obj 146 136 phasor~ 55;
#X obj 149 53 t b b f f;
#X connect 0 0 8 0;
#X connect 1 0 0 0;
#X connect 2 0 0 1;
#X connect 3 0 5 0;
#X connect 3 0 4 0;
#X connect 4 0 10 0;
#X connect 5 0 9 0;
#X connect 6 0 7 0;
#X connect 7 0 11 0;
#X connect 9 0 1 0;
#X connect 10 0 2 0;
#X connect 11 0 5 0;
#X connect 11 1 4 0;
#X connect 11 2 5 1;
#X connect 11 3 4 1;
#X restore 162 240 pd fatoscillator;
#X obj 201 414 t b f;
#X obj 199 347 t b f;
#X obj 191 438 + 20;
#N canvas 0 50 450 300 envelope 0;
#X obj 175 243 line;
#X msg 194 219 1 \$1;
#X msg 150 218 0 \$1;
#X obj 150 146 t b b;
#X obj 175 267 outlet;
#X obj 187 46 inlet attack;
#X obj 289 45 inlet decay;
#X obj 77 46 inlet trigger;
#X obj 187 87 t f f;
#X obj 150 196 f 50;
#X obj 194 197 f 50;
#X text 235 199 <-- default values 50 ms;
#X text 236 88 <-- set floats nicely;
#X obj 150 173 del 50;
#X text 151 9 envelope subpatch;
#X connect 0 0 4 0;
#X connect 1 0 0 0;
#X connect 2 0 0 0;
#X connect 3 0 13 0;
#X connect 3 1 10 0;
#X connect 5 0 8 0;
#X connect 6 0 9 1;
#X connect 7 0 3 0;
#X connect 8 0 13 1;
#X connect 8 1 10 1;
#X connect 9 0 2 0;
#X connect 10 0 1 0;
#X connect 13 0 9 0;
#X restore 179 517 pd envelope;
#X obj 163 540 *~;
#X obj 162 90 r \$0-oscf;
#X obj 269 213 r \$0-oscfat;
#X obj 227 277 r \$0-fenva;
#X obj 264 256 r \$0-fenvd;
#X obj 215 482 r \$0-aenva;
#X obj 251 458 r \$0-aenvd;
#X obj 200 552 r \$0-amp;
#X obj 226 438 r \$0-fres;
#X obj 199 325 r \$0-frng;
#X obj 201 393 r \$0-frle;
#X obj 162 607 outlet~;
#X obj 231 64 inlet;
#X obj 261 172 t b b;
#X obj 231 89 t f b;
#X obj 162 215 mtof;
#X obj 162 139 * 12;
#X obj 162 192 +;
#X obj 162 115 - 2;
#X obj 171 162 t b f;
#X text -29 140 times 12 to get octaves ->;
#X text -30 113 offset for negative ----->;
#X text -31 85 octave shift in --------->;
#X text -27 213 midi convert ------------>;
#X text -29 189 add to incomming note --->;
#X connect 0 0 21 0;
#X connect 1 0 2 0;
#X connect 2 0 10 0;
#X connect 3 0 4 0;
#X connect 4 0 8 0;
#X connect 5 0 1 0;
#X connect 6 0 8 0;
#X connect 6 1 8 1;
#X connect 7 0 4 0;
#X connect 7 1 4 1;
#X connect 8 0 1 1;
#X connect 9 0 10 1;
#X connect 10 0 0 0;
#X connect 11 0 28 0;
#X connect 12 0 5 1;
#X connect 13 0 3 1;
#X connect 14 0 3 2;
#X connect 15 0 9 1;
#X connect 16 0 9 2;
#X connect 17 0 0 1;
#X connect 18 0 1 2;
#X connect 19 0 7 0;
#X connect 20 0 6 0;
#X connect 22 0 24 0;
#X connect 23 0 9 0;
#X connect 23 1 3 0;
#X connect 24 0 29 0;
#X connect 24 1 23 0;
#X connect 25 0 5 0;
#X connect 26 0 27 0;
#X connect 27 0 25 0;
#X connect 28 0 26 0;
#X connect 29 0 27 0;
#X connect 29 1 27 1;
#X restore 339 337 pd synth1;
#N canvas 102 107 471 666 synth1 0;
#X obj 163 577 *~ 0.2;
#X obj 162 463 bp~ 100 3;
#X obj 162 489 hip~ 60;
#N canvas 0 50 450 300 envelope 0;
#X obj 175 243 line;
#X msg 194 219 1 \$1;
#X msg 150 218 0 \$1;
#X obj 150 146 t b b;
#X obj 175 267 outlet;
#X obj 187 46 inlet attack;
#X obj 289 45 inlet decay;
#X obj 77 46 inlet trigger;
#X obj 187 87 t f f;
#X obj 150 196 f 50;
#X obj 194 197 f 50;
#X text 235 199 <-- default values 50 ms;
#X text 236 88 <-- set floats nicely;
#X obj 150 173 del 50;
#X text 151 9 envelope subpatch;
#X connect 0 0 4 0;
#X connect 1 0 0 0;
#X connect 2 0 0 0;
#X connect 3 0 13 0;
#X connect 3 1 10 0;
#X connect 5 0 8 0;
#X connect 6 0 9 1;
#X connect 7 0 3 0;
#X connect 8 0 13 1;
#X connect 8 1 10 1;
#X connect 9 0 2 0;
#X connect 10 0 1 0;
#X connect 13 0 9 0;
#X restore 191 303 pd envelope;
#X obj 191 371 * 3000;
#N canvas 0 50 450 300 fatoscillator 0;
#X obj 113 206 +~;
#X obj 61 165 -~ 0.5;
#X obj 147 164 -~ 0.5;
#X obj 60 8 inlet pitch;
#X obj 146 108 +;
#X obj 60 109 -;
#X obj 149 7 inlet fatness;
#X obj 149 31 * 5;
#X obj 112 238 outlet~;
#X obj 60 137 phasor~ 55;
#X obj 146 136 phasor~ 55;
#X obj 149 53 t b b f f;
#X connect 0 0 8 0;
#X connect 1 0 0 0;
#X connect 2 0 0 1;
#X connect 3 0 5 0;
#X connect 3 0 4 0;
#X connect 4 0 10 0;
#X connect 5 0 9 0;
#X connect 6 0 7 0;
#X connect 7 0 11 0;
#X connect 9 0 1 0;
#X connect 10 0 2 0;
#X connect 11 0 5 0;
#X connect 11 1 4 0;
#X connect 11 2 5 1;
#X connect 11 3 4 1;
#X restore 162 240 pd fatoscillator;
#X obj 201 414 t b f;
#X obj 199 347 t b f;
#X obj 191 438 + 20;
#N canvas 0 50 450 300 envelope 0;
#X obj 175 243 line;
#X msg 194 219 1 \$1;
#X msg 150 218 0 \$1;
#X obj 150 146 t b b;
#X obj 175 267 outlet;
#X obj 187 46 inlet attack;
#X obj 289 45 inlet decay;
#X obj 77 46 inlet trigger;
#X obj 187 87 t f f;
#X obj 150 196 f 50;
#X obj 194 197 f 50;
#X text 235 199 <-- default values 50 ms;
#X text 236 88 <-- set floats nicely;
#X obj 150 173 del 50;
#X text 151 9 envelope subpatch;
#X connect 0 0 4 0;
#X connect 1 0 0 0;
#X connect 2 0 0 0;
#X connect 3 0 13 0;
#X connect 3 1 10 0;
#X connect 5 0 8 0;
#X connect 6 0 9 1;
#X connect 7 0 3 0;
#X connect 8 0 13 1;
#X connect 8 1 10 1;
#X connect 9 0 2 0;
#X connect 10 0 1 0;
#X connect 13 0 9 0;
#X restore 179 517 pd envelope;
#X obj 163 540 *~;
#X obj 162 90 r \$0-oscf;
#X obj 269 213 r \$0-oscfat;
#X obj 227 277 r \$0-fenva;
#X obj 264 256 r \$0-fenvd;
#X obj 215 482 r \$0-aenva;
#X obj 251 458 r \$0-aenvd;
#X obj 200 552 r \$0-amp;
#X obj 226 438 r \$0-fres;
#X obj 199 325 r \$0-frng;
#X obj 201 393 r \$0-frle;
#X obj 162 607 outlet~;
#X obj 231 64 inlet;
#X obj 261 172 t b b;
#X obj 231 89 t f b;
#X obj 162 215 mtof;
#X obj 162 139 * 12;
#X obj 162 192 +;
#X obj 162 115 - 2;
#X obj 171 162 t b f;
#X text -29 140 times 12 to get octaves ->;
#X text -30 113 offset for negative ----->;
#X text -31 85 octave shift in --------->;
#X text -27 213 midi convert ------------>;
#X text -29 189 add to incomming note --->;
#X connect 0 0 21 0;
#X connect 1 0 2 0;
#X connect 2 0 10 0;
#X connect 3 0 4 0;
#X connect 4 0 8 0;
#X connect 5 0 1 0;
#X connect 6 0 8 0;
#X connect 6 1 8 1;
#X connect 7 0 4 0;
#X connect 7 1 4 1;
#X connect 8 0 1 1;
#X connect 9 0 10 1;
#X connect 10 0 0 0;
#X connect 11 0 28 0;
#X connect 12 0 5 1;
#X connect 13 0 3 1;
#X connect 14 0 3 2;
#X connect 15 0 9 1;
#X connect 16 0 9 2;
#X connect 17 0 0 1;
#X connect 18 0 1 2;
#X connect 19 0 7 0;
#X connect 20 0 6 0;
#X connect 22 0 24 0;
#X connect 23 0 9 0;
#X connect 23 1 3 0;
#X connect 24 0 29 0;
#X connect 24 1 23 0;
#X connect 25 0 5 0;
#X connect 26 0 27 0;
#X connect 27 0 25 0;
#X connect 28 0 26 0;
#X connect 29 0 27 0;
#X connect 29 1 27 1;
#X restore 414 336 pd synth1;
#X msg 870 99 10;
#X obj 810 72 t b b b;
#X msg 783 101 3;
#X msg 825 101 6;
#X obj 37 247 f;
#X obj 228 215 t b b f;
#X obj 338 217 t b b f;
#X obj 457 217 t b b f;
#X obj 292 485 outlet~;
#X obj 29 22 inlet;
#X obj 216 388 *~ 1;
#X obj 237 365 r gain1;
#X obj 285 387 *~ 1;
#X obj 354 385 *~ 1;
#X obj 427 387 *~ 1;
#X obj 307 366 r gain2;
#X obj 377 365 r gain3;
#X obj 447 367 r gain4;
#X obj 566 451 r 1chord;
#X obj 123 32 r 1M;
#X obj 269 30 r 1m;
#X obj 424 34 r 1M7;
#X obj 551 32 r 1m7;
#X obj 812 30 r 1dim;
#X obj 679 31 r 1-7;
#X connect 0 0 16 0;
#X connect 1 0 17 0;
#X connect 2 0 18 0;
#X connect 3 0 39 0;
#X connect 4 0 17 0;
#X connect 5 0 18 0;
#X connect 6 0 16 0;
#X connect 7 0 17 0;
#X connect 8 0 17 0;
#X connect 9 0 17 0;
#X connect 10 0 16 0;
#X connect 11 0 18 0;
#X connect 12 0 16 0;
#X connect 13 0 18 0;
#X connect 14 0 16 0;
#X connect 15 0 18 0;
#X connect 16 0 36 0;
#X connect 17 0 37 0;
#X connect 18 0 38 0;
#X connect 19 0 0 0;
#X connect 19 1 1 0;
#X connect 19 2 2 0;
#X connect 20 0 28 0;
#X connect 21 0 29 0;
#X connect 22 0 30 0;
#X connect 23 0 10 0;
#X connect 23 1 4 0;
#X connect 23 2 5 0;
#X connect 24 0 6 0;
#X connect 24 1 7 0;
#X connect 24 2 11 0;
#X connect 25 0 12 0;
#X connect 25 1 8 0;
#X connect 25 2 13 0;
#X connect 26 0 14 0;
#X connect 26 1 9 0;
#X connect 26 2 15 0;
#X connect 27 0 41 0;
#X connect 28 0 43 0;
#X connect 29 0 44 0;
#X connect 30 0 45 0;
#X connect 31 0 18 0;
#X connect 32 0 33 0;
#X connect 32 1 34 0;
#X connect 32 2 31 0;
#X connect 33 0 16 0;
#X connect 34 0 17 0;
#X connect 35 0 20 0;
#X connect 35 0 21 0;
#X connect 35 0 22 0;
#X connect 35 0 27 0;
#X connect 36 0 35 0;
#X connect 36 1 20 0;
#X connect 36 2 20 1;
#X connect 37 0 35 0;
#X connect 37 1 21 0;
#X connect 37 2 21 1;
#X connect 38 0 35 0;
#X connect 38 1 22 0;
#X connect 38 2 22 1;
#X connect 40 0 35 1;
#X connect 41 0 3 0;
#X connect 42 0 41 1;
#X connect 43 0 3 1;
#X connect 44 0 3 2;
#X connect 45 0 3 3;
#X connect 46 0 43 1;
#X connect 47 0 44 1;
#X connect 48 0 45 1;
#X connect 50 0 19 0;
#X connect 51 0 23 0;
#X connect 52 0 24 0;
#X connect 53 0 25 0;
#X connect 54 0 32 0;
#X connect 55 0 26 0;
#X restore 212 246 pd chord;
#N canvas 2061 128 976 558 chord 0;
#X msg 113 113 4;
#X msg 158 112 7;
#X msg 201 110 0;
#N canvas 1460 273 450 300 sum~ 0;
#X obj 60 24 inlet~;
#X obj 137 24 inlet~;
#X obj 215 23 inlet~;
#X obj 299 21 inlet~;
#X obj 114 102 +~;
#X obj 267 102 +~;
#X obj 187 149 +~;
#X obj 188 191 outlet~;
#X obj 59 57 *~ 0.5;
#X obj 148 57 *~ 0.5;
#X obj 214 56 *~ 0.5;
#X obj 298 54 *~ 0.5;
#X connect 0 0 8 0;
#X connect 1 0 9 0;
#X connect 2 0 10 0;
#X connect 3 0 11 0;
#X connect 4 0 6 0;
#X connect 5 0 6 1;
#X connect 6 0 7 0;
#X connect 8 0 4 0;
#X connect 9 0 4 1;
#X connect 10 0 5 0;
#X connect 11 0 5 1;
#X restore 293 422 pd sum~;
#X msg 290 109 7;
#X msg 332 108 0;
#X msg 381 108 4;
#X msg 426 107 7;
#X msg 563 104 7;
#X msg 694 104 7;
#X msg 245 110 3;
#X msg 469 107 11;
#X msg 518 105 3;
#X msg 605 103 10;
#X msg 652 104 4;
#X msg 739 102 10;
#X obj 228 185 f;
#X obj 338 187 f;
#X obj 457 188 f;
#X obj 121 82 t b b b;
#X obj 289 276 +;
#X obj 342 274 +;
#X obj 395 274 +;
#X obj 271 79 t b b b;
#X obj 421 77 t b b b;
#X obj 551 76 t b b b;
#X obj 679 75 t b b b;
#N canvas 991 136 471 666 synth1 0;
#X obj 163 577 *~ 0.2;
#X obj 162 463 bp~ 100 3;
#X obj 162 489 hip~ 60;
#N canvas 0 86 450 300 envelope 0;
#X obj 175 243 line;
#X msg 194 219 1 \$1;
#X msg 150 218 0 \$1;
#X obj 150 146 t b b;
#X obj 175 267 outlet;
#X obj 187 46 inlet attack;
#X obj 289 45 inlet decay;
#X obj 77 46 inlet trigger;
#X obj 187 87 t f f;
#X obj 150 196 f 50;
#X obj 194 197 f 50;
#X text 235 199 <-- default values 50 ms;
#X text 236 88 <-- set floats nicely;
#X obj 150 173 del 50;
#X text 151 9 envelope subpatch;
#X connect 0 0 4 0;
#X connect 1 0 0 0;
#X connect 2 0 0 0;
#X connect 3 0 13 0;
#X connect 3 1 10 0;
#X connect 5 0 8 0;
#X connect 6 0 9 1;
#X connect 7 0 3 0;
#X connect 8 0 13 1;
#X connect 8 1 10 1;
#X connect 9 0 2 0;
#X connect 10 0 1 0;
#X connect 13 0 9 0;
#X restore 191 303 pd envelope;
#X obj 191 371 * 3000;
#N canvas 0 50 450 300 fatoscillator 0;
#X obj 113 206 +~;
#X obj 61 165 -~ 0.5;
#X obj 147 164 -~ 0.5;
#X obj 60 8 inlet pitch;
#X obj 146 108 +;
#X obj 60 109 -;
#X obj 149 7 inlet fatness;
#X obj 149 31 * 5;
#X obj 112 238 outlet~;
#X obj 60 137 phasor~ 55;
#X obj 146 136 phasor~ 55;
#X obj 149 53 t b b f f;
#X connect 0 0 8 0;
#X connect 1 0 0 0;
#X connect 2 0 0 1;
#X connect 3 0 5 0;
#X connect 3 0 4 0;
#X connect 4 0 10 0;
#X connect 5 0 9 0;
#X connect 6 0 7 0;
#X connect 7 0 11 0;
#X connect 9 0 1 0;
#X connect 10 0 2 0;
#X connect 11 0 5 0;
#X connect 11 1 4 0;
#X connect 11 2 5 1;
#X connect 11 3 4 1;
#X restore 162 240 pd fatoscillator;
#X obj 201 414 t b f;
#X obj 199 347 t b f;
#X obj 191 438 + 20;
#N canvas 491 129 450 300 envelope 0;
#X obj 175 243 line;
#X msg 194 219 1 \$1;
#X msg 150 218 0 \$1;
#X obj 150 146 t b b;
#X obj 175 267 outlet;
#X obj 187 46 inlet attack;
#X obj 289 45 inlet decay;
#X obj 77 46 inlet trigger;
#X obj 187 87 t f f;
#X obj 150 196 f 50;
#X obj 194 197 f 50;
#X text 235 199 <-- default values 50 ms;
#X text 236 88 <-- set floats nicely;
#X obj 150 173 del 50;
#X text 151 9 envelope subpatch;
#X connect 0 0 4 0;
#X connect 1 0 0 0;
#X connect 2 0 0 0;
#X connect 3 0 13 0;
#X connect 3 1 10 0;
#X connect 5 0 8 0;
#X connect 6 0 9 1;
#X connect 7 0 3 0;
#X connect 8 0 13 1;
#X connect 8 1 10 1;
#X connect 9 0 2 0;
#X connect 10 0 1 0;
#X connect 13 0 9 0;
#X restore 179 517 pd envelope;
#X obj 163 540 *~;
#X obj 162 90 r \$0-oscf;
#X obj 269 213 r \$0-oscfat;
#X obj 227 277 r \$0-fenva;
#X obj 264 256 r \$0-fenvd;
#X obj 215 482 r \$0-aenva;
#X obj 251 458 r \$0-aenvd;
#X obj 200 552 r \$0-amp;
#X obj 226 438 r \$0-fres;
#X obj 199 325 r \$0-frng;
#X obj 201 393 r \$0-frle;
#X obj 162 607 outlet~;
#X obj 231 64 inlet;
#X obj 261 172 t b b;
#X obj 231 89 t f b;
#X obj 162 215 mtof;
#X obj 162 139 * 12;
#X obj 162 192 +;
#X obj 162 115 - 2;
#X obj 171 162 t b f;
#X text -29 140 times 12 to get octaves ->;
#X text -30 113 offset for negative ----->;
#X text -31 85 octave shift in --------->;
#X text -27 213 midi convert ------------>;
#X text -29 189 add to incomming note --->;
#X connect 0 0 21 0;
#X connect 1 0 2 0;
#X connect 2 0 10 0;
#X connect 3 0 4 0;
#X connect 4 0 8 0;
#X connect 5 0 1 0;
#X connect 6 0 8 0;
#X connect 6 1 8 1;
#X connect 7 0 4 0;
#X connect 7 1 4 1;
#X connect 8 0 1 1;
#X connect 9 0 10 1;
#X connect 10 0 0 0;
#X connect 11 0 28 0;
#X connect 12 0 5 1;
#X connect 13 0 3 1;
#X connect 14 0 3 2;
#X connect 15 0 9 1;
#X connect 16 0 9 2;
#X connect 17 0 0 1;
#X connect 18 0 1 2;
#X connect 19 0 7 0;
#X connect 20 0 6 0;
#X connect 22 0 24 0;
#X connect 23 0 9 0;
#X connect 23 1 3 0;
#X connect 24 0 29 0;
#X connect 24 1 23 0;
#X connect 25 0 5 0;
#X connect 26 0 27 0;
#X connect 27 0 25 0;
#X connect 28 0 26 0;
#X connect 29 0 27 0;
#X connect 29 1 27 1;
#X restore 179 339 pd synth1;
#N canvas 102 107 471 666 synth1 0;
#X obj 163 577 *~ 0.2;
#X obj 162 463 bp~ 100 3;
#X obj 162 489 hip~ 60;
#N canvas 0 50 450 300 envelope 0;
#X obj 175 243 line;
#X msg 194 219 1 \$1;
#X msg 150 218 0 \$1;
#X obj 150 146 t b b;
#X obj 175 267 outlet;
#X obj 187 46 inlet attack;
#X obj 289 45 inlet decay;
#X obj 77 46 inlet trigger;
#X obj 187 87 t f f;
#X obj 150 196 f 50;
#X obj 194 197 f 50;
#X text 235 199 <-- default values 50 ms;
#X text 236 88 <-- set floats nicely;
#X obj 150 173 del 50;
#X text 151 9 envelope subpatch;
#X connect 0 0 4 0;
#X connect 1 0 0 0;
#X connect 2 0 0 0;
#X connect 3 0 13 0;
#X connect 3 1 10 0;
#X connect 5 0 8 0;
#X connect 6 0 9 1;
#X connect 7 0 3 0;
#X connect 8 0 13 1;
#X connect 8 1 10 1;
#X connect 9 0 2 0;
#X connect 10 0 1 0;
#X connect 13 0 9 0;
#X restore 191 303 pd envelope;
#X obj 191 371 * 3000;
#N canvas 0 50 450 300 fatoscillator 0;
#X obj 113 206 +~;
#X obj 61 165 -~ 0.5;
#X obj 147 164 -~ 0.5;
#X obj 60 8 inlet pitch;
#X obj 146 108 +;
#X obj 60 109 -;
#X obj 149 7 inlet fatness;
#X obj 149 31 * 5;
#X obj 112 238 outlet~;
#X obj 60 137 phasor~ 55;
#X obj 146 136 phasor~ 55;
#X obj 149 53 t b b f f;
#X connect 0 0 8 0;
#X connect 1 0 0 0;
#X connect 2 0 0 1;
#X connect 3 0 5 0;
#X connect 3 0 4 0;
#X connect 4 0 10 0;
#X connect 5 0 9 0;
#X connect 6 0 7 0;
#X connect 7 0 11 0;
#X connect 9 0 1 0;
#X connect 10 0 2 0;
#X connect 11 0 5 0;
#X connect 11 1 4 0;
#X connect 11 2 5 1;
#X connect 11 3 4 1;
#X restore 162 240 pd fatoscillator;
#X obj 201 414 t b f;
#X obj 199 347 t b f;
#X obj 191 438 + 20;
#N canvas 0 50 450 300 envelope 0;
#X obj 175 243 line;
#X msg 194 219 1 \$1;
#X msg 150 218 0 \$1;
#X obj 150 146 t b b;
#X obj 175 267 outlet;
#X obj 187 46 inlet attack;
#X obj 289 45 inlet decay;
#X obj 77 46 inlet trigger;
#X obj 187 87 t f f;
#X obj 150 196 f 50;
#X obj 194 197 f 50;
#X text 235 199 <-- default values 50 ms;
#X text 236 88 <-- set floats nicely;
#X obj 150 173 del 50;
#X text 151 9 envelope subpatch;
#X connect 0 0 4 0;
#X connect 1 0 0 0;
#X connect 2 0 0 0;
#X connect 3 0 13 0;
#X connect 3 1 10 0;
#X connect 5 0 8 0;
#X connect 6 0 9 1;
#X connect 7 0 3 0;
#X connect 8 0 13 1;
#X connect 8 1 10 1;
#X connect 9 0 2 0;
#X connect 10 0 1 0;
#X connect 13 0 9 0;
#X restore 179 517 pd envelope;
#X obj 163 540 *~;
#X obj 162 90 r \$0-oscf;
#X obj 269 213 r \$0-oscfat;
#X obj 227 277 r \$0-fenva;
#X obj 264 256 r \$0-fenvd;
#X obj 215 482 r \$0-aenva;
#X obj 251 458 r \$0-aenvd;
#X obj 200 552 r \$0-amp;
#X obj 226 438 r \$0-fres;
#X obj 199 325 r \$0-frng;
#X obj 201 393 r \$0-frle;
#X obj 162 607 outlet~;
#X obj 231 64 inlet;
#X obj 261 172 t b b;
#X obj 231 89 t f b;
#X obj 162 215 mtof;
#X obj 162 139 * 12;
#X obj 162 192 +;
#X obj 162 115 - 2;
#X obj 171 162 t b f;
#X text -29 140 times 12 to get octaves ->;
#X text -30 113 offset for negative ----->;
#X text -31 85 octave shift in --------->;
#X text -27 213 midi convert ------------>;
#X text -29 189 add to incomming note --->;
#X connect 0 0 21 0;
#X connect 1 0 2 0;
#X connect 2 0 10 0;
#X connect 3 0 4 0;
#X connect 4 0 8 0;
#X connect 5 0 1 0;
#X connect 6 0 8 0;
#X connect 6 1 8 1;
#X connect 7 0 4 0;
#X connect 7 1 4 1;
#X connect 8 0 1 1;
#X connect 9 0 10 1;
#X connect 10 0 0 0;
#X connect 11 0 28 0;
#X connect 12 0 5 1;
#X connect 13 0 3 1;
#X connect 14 0 3 2;
#X connect 15 0 9 1;
#X connect 16 0 9 2;
#X connect 17 0 0 1;
#X connect 18 0 1 2;
#X connect 19 0 7 0;
#X connect 20 0 6 0;
#X connect 22 0 24 0;
#X connect 23 0 9 0;
#X connect 23 1 3 0;
#X connect 24 0 29 0;
#X connect 24 1 23 0;
#X connect 25 0 5 0;
#X connect 26 0 27 0;
#X connect 27 0 25 0;
#X connect 28 0 26 0;
#X connect 29 0 27 0;
#X connect 29 1 27 1;
#X restore 261 338 pd synth1;
#N canvas 102 107 471 666 synth1 0;
#X obj 163 577 *~ 0.2;
#X obj 162 463 bp~ 100 3;
#X obj 162 489 hip~ 60;
#N canvas 0 50 450 300 envelope 0;
#X obj 175 243 line;
#X msg 194 219 1 \$1;
#X msg 150 218 0 \$1;
#X obj 150 146 t b b;
#X obj 175 267 outlet;
#X obj 187 46 inlet attack;
#X obj 289 45 inlet decay;
#X obj 77 46 inlet trigger;
#X obj 187 87 t f f;
#X obj 150 196 f 50;
#X obj 194 197 f 50;
#X text 235 199 <-- default values 50 ms;
#X text 236 88 <-- set floats nicely;
#X obj 150 173 del 50;
#X text 151 9 envelope subpatch;
#X connect 0 0 4 0;
#X connect 1 0 0 0;
#X connect 2 0 0 0;
#X connect 3 0 13 0;
#X connect 3 1 10 0;
#X connect 5 0 8 0;
#X connect 6 0 9 1;
#X connect 7 0 3 0;
#X connect 8 0 13 1;
#X connect 8 1 10 1;
#X connect 9 0 2 0;
#X connect 10 0 1 0;
#X connect 13 0 9 0;
#X restore 191 303 pd envelope;
#X obj 191 371 * 3000;
#N canvas 0 50 450 300 fatoscillator 0;
#X obj 113 206 +~;
#X obj 61 165 -~ 0.5;
#X obj 147 164 -~ 0.5;
#X obj 60 8 inlet pitch;
#X obj 146 108 +;
#X obj 60 109 -;
#X obj 149 7 inlet fatness;
#X obj 149 31 * 5;
#X obj 112 238 outlet~;
#X obj 60 137 phasor~ 55;
#X obj 146 136 phasor~ 55;
#X obj 149 53 t b b f f;
#X connect 0 0 8 0;
#X connect 1 0 0 0;
#X connect 2 0 0 1;
#X connect 3 0 5 0;
#X connect 3 0 4 0;
#X connect 4 0 10 0;
#X connect 5 0 9 0;
#X connect 6 0 7 0;
#X connect 7 0 11 0;
#X connect 9 0 1 0;
#X connect 10 0 2 0;
#X connect 11 0 5 0;
#X connect 11 1 4 0;
#X connect 11 2 5 1;
#X connect 11 3 4 1;
#X restore 162 240 pd fatoscillator;
#X obj 201 414 t b f;
#X obj 199 347 t b f;
#X obj 191 438 + 20;
#N canvas 0 50 450 300 envelope 0;
#X obj 175 243 line;
#X msg 194 219 1 \$1;
#X msg 150 218 0 \$1;
#X obj 150 146 t b b;
#X obj 175 267 outlet;
#X obj 187 46 inlet attack;
#X obj 289 45 inlet decay;
#X obj 77 46 inlet trigger;
#X obj 187 87 t f f;
#X obj 150 196 f 50;
#X obj 194 197 f 50;
#X text 235 199 <-- default values 50 ms;
#X text 236 88 <-- set floats nicely;
#X obj 150 173 del 50;
#X text 151 9 envelope subpatch;
#X connect 0 0 4 0;
#X connect 1 0 0 0;
#X connect 2 0 0 0;
#X connect 3 0 13 0;
#X connect 3 1 10 0;
#X connect 5 0 8 0;
#X connect 6 0 9 1;
#X connect 7 0 3 0;
#X connect 8 0 13 1;
#X connect 8 1 10 1;
#X connect 9 0 2 0;
#X connect 10 0 1 0;
#X connect 13 0 9 0;
#X restore 179 517 pd envelope;
#X obj 163 540 *~;
#X obj 162 90 r \$0-oscf;
#X obj 269 213 r \$0-oscfat;
#X obj 227 277 r \$0-fenva;
#X obj 264 256 r \$0-fenvd;
#X obj 215 482 r \$0-aenva;
#X obj 251 458 r \$0-aenvd;
#X obj 200 552 r \$0-amp;
#X obj 226 438 r \$0-fres;
#X obj 199 325 r \$0-frng;
#X obj 201 393 r \$0-frle;
#X obj 162 607 outlet~;
#X obj 231 64 inlet;
#X obj 261 172 t b b;
#X obj 231 89 t f b;
#X obj 162 215 mtof;
#X obj 162 139 * 12;
#X obj 162 192 +;
#X obj 162 115 - 2;
#X obj 171 162 t b f;
#X text -29 140 times 12 to get octaves ->;
#X text -30 113 offset for negative ----->;
#X text -31 85 octave shift in --------->;
#X text -27 213 midi convert ------------>;
#X text -29 189 add to incomming note --->;
#X connect 0 0 21 0;
#X connect 1 0 2 0;
#X connect 2 0 10 0;
#X connect 3 0 4 0;
#X connect 4 0 8 0;
#X connect 5 0 1 0;
#X connect 6 0 8 0;
#X connect 6 1 8 1;
#X connect 7 0 4 0;
#X connect 7 1 4 1;
#X connect 8 0 1 1;
#X connect 9 0 10 1;
#X connect 10 0 0 0;
#X connect 11 0 28 0;
#X connect 12 0 5 1;
#X connect 13 0 3 1;
#X connect 14 0 3 2;
#X connect 15 0 9 1;
#X connect 16 0 9 2;
#X connect 17 0 0 1;
#X connect 18 0 1 2;
#X connect 19 0 7 0;
#X connect 20 0 6 0;
#X connect 22 0 24 0;
#X connect 23 0 9 0;
#X connect 23 1 3 0;
#X connect 24 0 29 0;
#X connect 24 1 23 0;
#X connect 25 0 5 0;
#X connect 26 0 27 0;
#X connect 27 0 25 0;
#X connect 28 0 26 0;
#X connect 29 0 27 0;
#X connect 29 1 27 1;
#X restore 339 337 pd synth1;
#N canvas 102 107 471 666 synth1 0;
#X obj 163 577 *~ 0.2;
#X obj 162 463 bp~ 100 3;
#X obj 162 489 hip~ 60;
#N canvas 0 50 450 300 envelope 0;
#X obj 175 243 line;
#X msg 194 219 1 \$1;
#X msg 150 218 0 \$1;
#X obj 150 146 t b b;
#X obj 175 267 outlet;
#X obj 187 46 inlet attack;
#X obj 289 45 inlet decay;
#X obj 77 46 inlet trigger;
#X obj 187 87 t f f;
#X obj 150 196 f 50;
#X obj 194 197 f 50;
#X text 235 199 <-- default values 50 ms;
#X text 236 88 <-- set floats nicely;
#X obj 150 173 del 50;
#X text 151 9 envelope subpatch;
#X connect 0 0 4 0;
#X connect 1 0 0 0;
#X connect 2 0 0 0;
#X connect 3 0 13 0;
#X connect 3 1 10 0;
#X connect 5 0 8 0;
#X connect 6 0 9 1;
#X connect 7 0 3 0;
#X connect 8 0 13 1;
#X connect 8 1 10 1;
#X connect 9 0 2 0;
#X connect 10 0 1 0;
#X connect 13 0 9 0;
#X restore 191 303 pd envelope;
#X obj 191 371 * 3000;
#N canvas 0 50 450 300 fatoscillator 0;
#X obj 113 206 +~;
#X obj 61 165 -~ 0.5;
#X obj 147 164 -~ 0.5;
#X obj 60 8 inlet pitch;
#X obj 146 108 +;
#X obj 60 109 -;
#X obj 149 7 inlet fatness;
#X obj 149 31 * 5;
#X obj 112 238 outlet~;
#X obj 60 137 phasor~ 55;
#X obj 146 136 phasor~ 55;
#X obj 149 53 t b b f f;
#X connect 0 0 8 0;
#X connect 1 0 0 0;
#X connect 2 0 0 1;
#X connect 3 0 5 0;
#X connect 3 0 4 0;
#X connect 4 0 10 0;
#X connect 5 0 9 0;
#X connect 6 0 7 0;
#X connect 7 0 11 0;
#X connect 9 0 1 0;
#X connect 10 0 2 0;
#X connect 11 0 5 0;
#X connect 11 1 4 0;
#X connect 11 2 5 1;
#X connect 11 3 4 1;
#X restore 162 240 pd fatoscillator;
#X obj 201 414 t b f;
#X obj 199 347 t b f;
#X obj 191 438 + 20;
#N canvas 0 50 450 300 envelope 0;
#X obj 175 243 line;
#X msg 194 219 1 \$1;
#X msg 150 218 0 \$1;
#X obj 150 146 t b b;
#X obj 175 267 outlet;
#X obj 187 46 inlet attack;
#X obj 289 45 inlet decay;
#X obj 77 46 inlet trigger;
#X obj 187 87 t f f;
#X obj 150 196 f 50;
#X obj 194 197 f 50;
#X text 235 199 <-- default values 50 ms;
#X text 236 88 <-- set floats nicely;
#X obj 150 173 del 50;
#X text 151 9 envelope subpatch;
#X connect 0 0 4 0;
#X connect 1 0 0 0;
#X connect 2 0 0 0;
#X connect 3 0 13 0;
#X connect 3 1 10 0;
#X connect 5 0 8 0;
#X connect 6 0 9 1;
#X connect 7 0 3 0;
#X connect 8 0 13 1;
#X connect 8 1 10 1;
#X connect 9 0 2 0;
#X connect 10 0 1 0;
#X connect 13 0 9 0;
#X restore 179 517 pd envelope;
#X obj 163 540 *~;
#X obj 162 90 r \$0-oscf;
#X obj 269 213 r \$0-oscfat;
#X obj 227 277 r \$0-fenva;
#X obj 264 256 r \$0-fenvd;
#X obj 215 482 r \$0-aenva;
#X obj 251 458 r \$0-aenvd;
#X obj 200 552 r \$0-amp;
#X obj 226 438 r \$0-fres;
#X obj 199 325 r \$0-frng;
#X obj 201 393 r \$0-frle;
#X obj 162 607 outlet~;
#X obj 231 64 inlet;
#X obj 261 172 t b b;
#X obj 231 89 t f b;
#X obj 162 215 mtof;
#X obj 162 139 * 12;
#X obj 162 192 +;
#X obj 162 115 - 2;
#X obj 171 162 t b f;
#X text -29 140 times 12 to get octaves ->;
#X text -30 113 offset for negative ----->;
#X text -31 85 octave shift in --------->;
#X text -27 213 midi convert ------------>;
#X text -29 189 add to incomming note --->;
#X connect 0 0 21 0;
#X connect 1 0 2 0;
#X connect 2 0 10 0;
#X connect 3 0 4 0;
#X connect 4 0 8 0;
#X connect 5 0 1 0;
#X connect 6 0 8 0;
#X connect 6 1 8 1;
#X connect 7 0 4 0;
#X connect 7 1 4 1;
#X connect 8 0 1 1;
#X connect 9 0 10 1;
#X connect 10 0 0 0;
#X connect 11 0 28 0;
#X connect 12 0 5 1;
#X connect 13 0 3 1;
#X connect 14 0 3 2;
#X connect 15 0 9 1;
#X connect 16 0 9 2;
#X connect 17 0 0 1;
#X connect 18 0 1 2;
#X connect 19 0 7 0;
#X connect 20 0 6 0;
#X connect 22 0 24 0;
#X connect 23 0 9 0;
#X connect 23 1 3 0;
#X connect 24 0 29 0;
#X connect 24 1 23 0;
#X connect 25 0 5 0;
#X connect 26 0 27 0;
#X connect 27 0 25 0;
#X connect 28 0 26 0;
#X connect 29 0 27 0;
#X connect 29 1 27 1;
#X restore 414 336 pd synth1;
#X msg 870 99 10;
#X obj 810 72 t b b b;
#X msg 783 101 3;
#X msg 825 101 6;
#X obj 37 247 f;
#X obj 228 215 t b b f;
#X obj 338 217 t b b f;
#X obj 457 217 t b b f;
#X obj 292 485 outlet~;
#X obj 29 22 inlet;
#X obj 216 388 *~ 1;
#X obj 237 365 r gain1;
#X obj 285 387 *~ 1;
#X obj 354 385 *~ 1;
#X obj 427 387 *~ 1;
#X obj 307 366 r gain2;
#X obj 377 365 r gain3;
#X obj 447 367 r gain4;
#X obj 123 32 r 2M;
#X obj 269 30 r 2m;
#X obj 424 34 r 2M7;
#X obj 551 32 r 2m7;
#X obj 679 31 r 2-7;
#X obj 812 30 r 2dim;
#X connect 0 0 16 0;
#X connect 1 0 17 0;
#X connect 2 0 18 0;
#X connect 3 0 39 0;
#X connect 4 0 17 0;
#X connect 5 0 18 0;
#X connect 6 0 16 0;
#X connect 7 0 17 0;
#X connect 8 0 17 0;
#X connect 9 0 17 0;
#X connect 10 0 16 0;
#X connect 11 0 18 0;
#X connect 12 0 16 0;
#X connect 13 0 18 0;
#X connect 14 0 16 0;
#X connect 15 0 18 0;
#X connect 16 0 36 0;
#X connect 17 0 37 0;
#X connect 18 0 38 0;
#X connect 19 0 0 0;
#X connect 19 1 1 0;
#X connect 19 2 2 0;
#X connect 20 0 28 0;
#X connect 21 0 29 0;
#X connect 22 0 30 0;
#X connect 23 0 10 0;
#X connect 23 1 4 0;
#X connect 23 2 5 0;
#X connect 24 0 6 0;
#X connect 24 1 7 0;
#X connect 24 2 11 0;
#X connect 25 0 12 0;
#X connect 25 1 8 0;
#X connect 25 2 13 0;
#X connect 26 0 14 0;
#X connect 26 1 9 0;
#X connect 26 2 15 0;
#X connect 27 0 41 0;
#X connect 28 0 43 0;
#X connect 29 0 44 0;
#X connect 30 0 45 0;
#X connect 31 0 18 0;
#X connect 32 0 33 0;
#X connect 32 1 34 0;
#X connect 32 2 31 0;
#X connect 33 0 16 0;
#X connect 34 0 17 0;
#X connect 35 0 20 0;
#X connect 35 0 21 0;
#X connect 35 0 22 0;
#X connect 35 0 27 0;
#X connect 36 0 35 0;
#X connect 36 1 20 0;
#X connect 36 2 20 1;
#X connect 37 0 35 0;
#X connect 37 1 21 0;
#X connect 37 2 21 1;
#X connect 38 0 35 0;
#X connect 38 1 22 0;
#X connect 38 2 22 1;
#X connect 40 0 35 1;
#X connect 41 0 3 0;
#X connect 42 0 41 1;
#X connect 43 0 3 1;
#X connect 44 0 3 2;
#X connect 45 0 3 3;
#X connect 46 0 43 1;
#X connect 47 0 44 1;
#X connect 48 0 45 1;
#X connect 49 0 19 0;
#X connect 50 0 23 0;
#X connect 51 0 24 0;
#X connect 52 0 25 0;
#X connect 53 0 26 0;
#X connect 54 0 32 0;
#X restore 300 245 pd chord;
#N canvas 2130 219 976 558 chord 0;
#X msg 113 113 4;
#X msg 158 112 7;
#X msg 201 110 0;
#N canvas 1460 273 450 300 sum~ 0;
#X obj 60 24 inlet~;
#X obj 137 24 inlet~;
#X obj 215 23 inlet~;
#X obj 299 21 inlet~;
#X obj 114 102 +~;
#X obj 267 102 +~;
#X obj 187 149 +~;
#X obj 188 191 outlet~;
#X obj 59 57 *~ 0.5;
#X obj 148 57 *~ 0.5;
#X obj 214 56 *~ 0.5;
#X obj 298 54 *~ 0.5;
#X connect 0 0 8 0;
#X connect 1 0 9 0;
#X connect 2 0 10 0;
#X connect 3 0 11 0;
#X connect 4 0 6 0;
#X connect 5 0 6 1;
#X connect 6 0 7 0;
#X connect 8 0 4 0;
#X connect 9 0 4 1;
#X connect 10 0 5 0;
#X connect 11 0 5 1;
#X restore 293 422 pd sum~;
#X msg 290 109 7;
#X msg 332 108 0;
#X msg 381 108 4;
#X msg 426 107 7;
#X msg 563 104 7;
#X msg 694 104 7;
#X msg 245 110 3;
#X msg 469 107 11;
#X msg 518 105 3;
#X msg 605 103 10;
#X msg 652 104 4;
#X msg 739 102 10;
#X obj 228 185 f;
#X obj 338 187 f;
#X obj 457 188 f;
#X obj 121 82 t b b b;
#X obj 289 276 +;
#X obj 342 274 +;
#X obj 395 274 +;
#X obj 271 79 t b b b;
#X obj 421 77 t b b b;
#X obj 551 76 t b b b;
#X obj 679 75 t b b b;
#N canvas 991 136 471 666 synth1 0;
#X obj 163 577 *~ 0.2;
#X obj 162 463 bp~ 100 3;
#X obj 162 489 hip~ 60;
#N canvas 0 86 450 300 envelope 0;
#X obj 175 243 line;
#X msg 194 219 1 \$1;
#X msg 150 218 0 \$1;
#X obj 150 146 t b b;
#X obj 175 267 outlet;
#X obj 187 46 inlet attack;
#X obj 289 45 inlet decay;
#X obj 77 46 inlet trigger;
#X obj 187 87 t f f;
#X obj 150 196 f 50;
#X obj 194 197 f 50;
#X text 235 199 <-- default values 50 ms;
#X text 236 88 <-- set floats nicely;
#X obj 150 173 del 50;
#X text 151 9 envelope subpatch;
#X connect 0 0 4 0;
#X connect 1 0 0 0;
#X connect 2 0 0 0;
#X connect 3 0 13 0;
#X connect 3 1 10 0;
#X connect 5 0 8 0;
#X connect 6 0 9 1;
#X connect 7 0 3 0;
#X connect 8 0 13 1;
#X connect 8 1 10 1;
#X connect 9 0 2 0;
#X connect 10 0 1 0;
#X connect 13 0 9 0;
#X restore 191 303 pd envelope;
#X obj 191 371 * 3000;
#N canvas 0 50 450 300 fatoscillator 0;
#X obj 113 206 +~;
#X obj 61 165 -~ 0.5;
#X obj 147 164 -~ 0.5;
#X obj 60 8 inlet pitch;
#X obj 146 108 +;
#X obj 60 109 -;
#X obj 149 7 inlet fatness;
#X obj 149 31 * 5;
#X obj 112 238 outlet~;
#X obj 60 137 phasor~ 55;
#X obj 146 136 phasor~ 55;
#X obj 149 53 t b b f f;
#X connect 0 0 8 0;
#X connect 1 0 0 0;
#X connect 2 0 0 1;
#X connect 3 0 5 0;
#X connect 3 0 4 0;
#X connect 4 0 10 0;
#X connect 5 0 9 0;
#X connect 6 0 7 0;
#X connect 7 0 11 0;
#X connect 9 0 1 0;
#X connect 10 0 2 0;
#X connect 11 0 5 0;
#X connect 11 1 4 0;
#X connect 11 2 5 1;
#X connect 11 3 4 1;
#X restore 162 240 pd fatoscillator;
#X obj 201 414 t b f;
#X obj 199 347 t b f;
#X obj 191 438 + 20;
#N canvas 491 129 450 300 envelope 0;
#X obj 175 243 line;
#X msg 194 219 1 \$1;
#X msg 150 218 0 \$1;
#X obj 150 146 t b b;
#X obj 175 267 outlet;
#X obj 187 46 inlet attack;
#X obj 289 45 inlet decay;
#X obj 77 46 inlet trigger;
#X obj 187 87 t f f;
#X obj 150 196 f 50;
#X obj 194 197 f 50;
#X text 235 199 <-- default values 50 ms;
#X text 236 88 <-- set floats nicely;
#X obj 150 173 del 50;
#X text 151 9 envelope subpatch;
#X connect 0 0 4 0;
#X connect 1 0 0 0;
#X connect 2 0 0 0;
#X connect 3 0 13 0;
#X connect 3 1 10 0;
#X connect 5 0 8 0;
#X connect 6 0 9 1;
#X connect 7 0 3 0;
#X connect 8 0 13 1;
#X connect 8 1 10 1;
#X connect 9 0 2 0;
#X connect 10 0 1 0;
#X connect 13 0 9 0;
#X restore 179 517 pd envelope;
#X obj 163 540 *~;
#X obj 162 90 r \$0-oscf;
#X obj 269 213 r \$0-oscfat;
#X obj 227 277 r \$0-fenva;
#X obj 264 256 r \$0-fenvd;
#X obj 215 482 r \$0-aenva;
#X obj 251 458 r \$0-aenvd;
#X obj 200 552 r \$0-amp;
#X obj 226 438 r \$0-fres;
#X obj 199 325 r \$0-frng;
#X obj 201 393 r \$0-frle;
#X obj 162 607 outlet~;
#X obj 231 64 inlet;
#X obj 261 172 t b b;
#X obj 231 89 t f b;
#X obj 162 215 mtof;
#X obj 162 139 * 12;
#X obj 162 192 +;
#X obj 162 115 - 2;
#X obj 171 162 t b f;
#X text -29 140 times 12 to get octaves ->;
#X text -30 113 offset for negative ----->;
#X text -31 85 octave shift in --------->;
#X text -27 213 midi convert ------------>;
#X text -29 189 add to incomming note --->;
#X connect 0 0 21 0;
#X connect 1 0 2 0;
#X connect 2 0 10 0;
#X connect 3 0 4 0;
#X connect 4 0 8 0;
#X connect 5 0 1 0;
#X connect 6 0 8 0;
#X connect 6 1 8 1;
#X connect 7 0 4 0;
#X connect 7 1 4 1;
#X connect 8 0 1 1;
#X connect 9 0 10 1;
#X connect 10 0 0 0;
#X connect 11 0 28 0;
#X connect 12 0 5 1;
#X connect 13 0 3 1;
#X connect 14 0 3 2;
#X connect 15 0 9 1;
#X connect 16 0 9 2;
#X connect 17 0 0 1;
#X connect 18 0 1 2;
#X connect 19 0 7 0;
#X connect 20 0 6 0;
#X connect 22 0 24 0;
#X connect 23 0 9 0;
#X connect 23 1 3 0;
#X connect 24 0 29 0;
#X connect 24 1 23 0;
#X connect 25 0 5 0;
#X connect 26 0 27 0;
#X connect 27 0 25 0;
#X connect 28 0 26 0;
#X connect 29 0 27 0;
#X connect 29 1 27 1;
#X restore 179 339 pd synth1;
#N canvas 102 107 471 666 synth1 0;
#X obj 163 577 *~ 0.2;
#X obj 162 463 bp~ 100 3;
#X obj 162 489 hip~ 60;
#N canvas 0 50 450 300 envelope 0;
#X obj 175 243 line;
#X msg 194 219 1 \$1;
#X msg 150 218 0 \$1;
#X obj 150 146 t b b;
#X obj 175 267 outlet;
#X obj 187 46 inlet attack;
#X obj 289 45 inlet decay;
#X obj 77 46 inlet trigger;
#X obj 187 87 t f f;
#X obj 150 196 f 50;
#X obj 194 197 f 50;
#X text 235 199 <-- default values 50 ms;
#X text 236 88 <-- set floats nicely;
#X obj 150 173 del 50;
#X text 151 9 envelope subpatch;
#X connect 0 0 4 0;
#X connect 1 0 0 0;
#X connect 2 0 0 0;
#X connect 3 0 13 0;
#X connect 3 1 10 0;
#X connect 5 0 8 0;
#X connect 6 0 9 1;
#X connect 7 0 3 0;
#X connect 8 0 13 1;
#X connect 8 1 10 1;
#X connect 9 0 2 0;
#X connect 10 0 1 0;
#X connect 13 0 9 0;
#X restore 191 303 pd envelope;
#X obj 191 371 * 3000;
#N canvas 0 50 450 300 fatoscillator 0;
#X obj 113 206 +~;
#X obj 61 165 -~ 0.5;
#X obj 147 164 -~ 0.5;
#X obj 60 8 inlet pitch;
#X obj 146 108 +;
#X obj 60 109 -;
#X obj 149 7 inlet fatness;
#X obj 149 31 * 5;
#X obj 112 238 outlet~;
#X obj 60 137 phasor~ 55;
#X obj 146 136 phasor~ 55;
#X obj 149 53 t b b f f;
#X connect 0 0 8 0;
#X connect 1 0 0 0;
#X connect 2 0 0 1;
#X connect 3 0 5 0;
#X connect 3 0 4 0;
#X connect 4 0 10 0;
#X connect 5 0 9 0;
#X connect 6 0 7 0;
#X connect 7 0 11 0;
#X connect 9 0 1 0;
#X connect 10 0 2 0;
#X connect 11 0 5 0;
#X connect 11 1 4 0;
#X connect 11 2 5 1;
#X connect 11 3 4 1;
#X restore 162 240 pd fatoscillator;
#X obj 201 414 t b f;
#X obj 199 347 t b f;
#X obj 191 438 + 20;
#N canvas 0 50 450 300 envelope 0;
#X obj 175 243 line;
#X msg 194 219 1 \$1;
#X msg 150 218 0 \$1;
#X obj 150 146 t b b;
#X obj 175 267 outlet;
#X obj 187 46 inlet attack;
#X obj 289 45 inlet decay;
#X obj 77 46 inlet trigger;
#X obj 187 87 t f f;
#X obj 150 196 f 50;
#X obj 194 197 f 50;
#X text 235 199 <-- default values 50 ms;
#X text 236 88 <-- set floats nicely;
#X obj 150 173 del 50;
#X text 151 9 envelope subpatch;
#X connect 0 0 4 0;
#X connect 1 0 0 0;
#X connect 2 0 0 0;
#X connect 3 0 13 0;
#X connect 3 1 10 0;
#X connect 5 0 8 0;
#X connect 6 0 9 1;
#X connect 7 0 3 0;
#X connect 8 0 13 1;
#X connect 8 1 10 1;
#X connect 9 0 2 0;
#X connect 10 0 1 0;
#X connect 13 0 9 0;
#X restore 179 517 pd envelope;
#X obj 163 540 *~;
#X obj 162 90 r \$0-oscf;
#X obj 269 213 r \$0-oscfat;
#X obj 227 277 r \$0-fenva;
#X obj 264 256 r \$0-fenvd;
#X obj 215 482 r \$0-aenva;
#X obj 251 458 r \$0-aenvd;
#X obj 200 552 r \$0-amp;
#X obj 226 438 r \$0-fres;
#X obj 199 325 r \$0-frng;
#X obj 201 393 r \$0-frle;
#X obj 162 607 outlet~;
#X obj 231 64 inlet;
#X obj 261 172 t b b;
#X obj 231 89 t f b;
#X obj 162 215 mtof;
#X obj 162 139 * 12;
#X obj 162 192 +;
#X obj 162 115 - 2;
#X obj 171 162 t b f;
#X text -29 140 times 12 to get octaves ->;
#X text -30 113 offset for negative ----->;
#X text -31 85 octave shift in --------->;
#X text -27 213 midi convert ------------>;
#X text -29 189 add to incomming note --->;
#X connect 0 0 21 0;
#X connect 1 0 2 0;
#X connect 2 0 10 0;
#X connect 3 0 4 0;
#X connect 4 0 8 0;
#X connect 5 0 1 0;
#X connect 6 0 8 0;
#X connect 6 1 8 1;
#X connect 7 0 4 0;
#X connect 7 1 4 1;
#X connect 8 0 1 1;
#X connect 9 0 10 1;
#X connect 10 0 0 0;
#X connect 11 0 28 0;
#X connect 12 0 5 1;
#X connect 13 0 3 1;
#X connect 14 0 3 2;
#X connect 15 0 9 1;
#X connect 16 0 9 2;
#X connect 17 0 0 1;
#X connect 18 0 1 2;
#X connect 19 0 7 0;
#X connect 20 0 6 0;
#X connect 22 0 24 0;
#X connect 23 0 9 0;
#X connect 23 1 3 0;
#X connect 24 0 29 0;
#X connect 24 1 23 0;
#X connect 25 0 5 0;
#X connect 26 0 27 0;
#X connect 27 0 25 0;
#X connect 28 0 26 0;
#X connect 29 0 27 0;
#X connect 29 1 27 1;
#X restore 261 338 pd synth1;
#N canvas 102 107 471 666 synth1 0;
#X obj 163 577 *~ 0.2;
#X obj 162 463 bp~ 100 3;
#X obj 162 489 hip~ 60;
#N canvas 0 50 450 300 envelope 0;
#X obj 175 243 line;
#X msg 194 219 1 \$1;
#X msg 150 218 0 \$1;
#X obj 150 146 t b b;
#X obj 175 267 outlet;
#X obj 187 46 inlet attack;
#X obj 289 45 inlet decay;
#X obj 77 46 inlet trigger;
#X obj 187 87 t f f;
#X obj 150 196 f 50;
#X obj 194 197 f 50;
#X text 235 199 <-- default values 50 ms;
#X text 236 88 <-- set floats nicely;
#X obj 150 173 del 50;
#X text 151 9 envelope subpatch;
#X connect 0 0 4 0;
#X connect 1 0 0 0;
#X connect 2 0 0 0;
#X connect 3 0 13 0;
#X connect 3 1 10 0;
#X connect 5 0 8 0;
#X connect 6 0 9 1;
#X connect 7 0 3 0;
#X connect 8 0 13 1;
#X connect 8 1 10 1;
#X connect 9 0 2 0;
#X connect 10 0 1 0;
#X connect 13 0 9 0;
#X restore 191 303 pd envelope;
#X obj 191 371 * 3000;
#N canvas 0 50 450 300 fatoscillator 0;
#X obj 113 206 +~;
#X obj 61 165 -~ 0.5;
#X obj 147 164 -~ 0.5;
#X obj 60 8 inlet pitch;
#X obj 146 108 +;
#X obj 60 109 -;
#X obj 149 7 inlet fatness;
#X obj 149 31 * 5;
#X obj 112 238 outlet~;
#X obj 60 137 phasor~ 55;
#X obj 146 136 phasor~ 55;
#X obj 149 53 t b b f f;
#X connect 0 0 8 0;
#X connect 1 0 0 0;
#X connect 2 0 0 1;
#X connect 3 0 5 0;
#X connect 3 0 4 0;
#X connect 4 0 10 0;
#X connect 5 0 9 0;
#X connect 6 0 7 0;
#X connect 7 0 11 0;
#X connect 9 0 1 0;
#X connect 10 0 2 0;
#X connect 11 0 5 0;
#X connect 11 1 4 0;
#X connect 11 2 5 1;
#X connect 11 3 4 1;
#X restore 162 240 pd fatoscillator;
#X obj 201 414 t b f;
#X obj 199 347 t b f;
#X obj 191 438 + 20;
#N canvas 0 50 450 300 envelope 0;
#X obj 175 243 line;
#X msg 194 219 1 \$1;
#X msg 150 218 0 \$1;
#X obj 150 146 t b b;
#X obj 175 267 outlet;
#X obj 187 46 inlet attack;
#X obj 289 45 inlet decay;
#X obj 77 46 inlet trigger;
#X obj 187 87 t f f;
#X obj 150 196 f 50;
#X obj 194 197 f 50;
#X text 235 199 <-- default values 50 ms;
#X text 236 88 <-- set floats nicely;
#X obj 150 173 del 50;
#X text 151 9 envelope subpatch;
#X connect 0 0 4 0;
#X connect 1 0 0 0;
#X connect 2 0 0 0;
#X connect 3 0 13 0;
#X connect 3 1 10 0;
#X connect 5 0 8 0;
#X connect 6 0 9 1;
#X connect 7 0 3 0;
#X connect 8 0 13 1;
#X connect 8 1 10 1;
#X connect 9 0 2 0;
#X connect 10 0 1 0;
#X connect 13 0 9 0;
#X restore 179 517 pd envelope;
#X obj 163 540 *~;
#X obj 162 90 r \$0-oscf;
#X obj 269 213 r \$0-oscfat;
#X obj 227 277 r \$0-fenva;
#X obj 264 256 r \$0-fenvd;
#X obj 215 482 r \$0-aenva;
#X obj 251 458 r \$0-aenvd;
#X obj 200 552 r \$0-amp;
#X obj 226 438 r \$0-fres;
#X obj 199 325 r \$0-frng;
#X obj 201 393 r \$0-frle;
#X obj 162 607 outlet~;
#X obj 231 64 inlet;
#X obj 261 172 t b b;
#X obj 231 89 t f b;
#X obj 162 215 mtof;
#X obj 162 139 * 12;
#X obj 162 192 +;
#X obj 162 115 - 2;
#X obj 171 162 t b f;
#X text -29 140 times 12 to get octaves ->;
#X text -30 113 offset for negative ----->;
#X text -31 85 octave shift in --------->;
#X text -27 213 midi convert ------------>;
#X text -29 189 add to incomming note --->;
#X connect 0 0 21 0;
#X connect 1 0 2 0;
#X connect 2 0 10 0;
#X connect 3 0 4 0;
#X connect 4 0 8 0;
#X connect 5 0 1 0;
#X connect 6 0 8 0;
#X connect 6 1 8 1;
#X connect 7 0 4 0;
#X connect 7 1 4 1;
#X connect 8 0 1 1;
#X connect 9 0 10 1;
#X connect 10 0 0 0;
#X connect 11 0 28 0;
#X connect 12 0 5 1;
#X connect 13 0 3 1;
#X connect 14 0 3 2;
#X connect 15 0 9 1;
#X connect 16 0 9 2;
#X connect 17 0 0 1;
#X connect 18 0 1 2;
#X connect 19 0 7 0;
#X connect 20 0 6 0;
#X connect 22 0 24 0;
#X connect 23 0 9 0;
#X connect 23 1 3 0;
#X connect 24 0 29 0;
#X connect 24 1 23 0;
#X connect 25 0 5 0;
#X connect 26 0 27 0;
#X connect 27 0 25 0;
#X connect 28 0 26 0;
#X connect 29 0 27 0;
#X connect 29 1 27 1;
#X restore 339 337 pd synth1;
#N canvas 102 107 471 666 synth1 0;
#X obj 163 577 *~ 0.2;
#X obj 162 463 bp~ 100 3;
#X obj 162 489 hip~ 60;
#N canvas 0 50 450 300 envelope 0;
#X obj 175 243 line;
#X msg 194 219 1 \$1;
#X msg 150 218 0 \$1;
#X obj 150 146 t b b;
#X obj 175 267 outlet;
#X obj 187 46 inlet attack;
#X obj 289 45 inlet decay;
#X obj 77 46 inlet trigger;
#X obj 187 87 t f f;
#X obj 150 196 f 50;
#X obj 194 197 f 50;
#X text 235 199 <-- default values 50 ms;
#X text 236 88 <-- set floats nicely;
#X obj 150 173 del 50;
#X text 151 9 envelope subpatch;
#X connect 0 0 4 0;
#X connect 1 0 0 0;
#X connect 2 0 0 0;
#X connect 3 0 13 0;
#X connect 3 1 10 0;
#X connect 5 0 8 0;
#X connect 6 0 9 1;
#X connect 7 0 3 0;
#X connect 8 0 13 1;
#X connect 8 1 10 1;
#X connect 9 0 2 0;
#X connect 10 0 1 0;
#X connect 13 0 9 0;
#X restore 191 303 pd envelope;
#X obj 191 371 * 3000;
#N canvas 0 50 450 300 fatoscillator 0;
#X obj 113 206 +~;
#X obj 61 165 -~ 0.5;
#X obj 147 164 -~ 0.5;
#X obj 60 8 inlet pitch;
#X obj 146 108 +;
#X obj 60 109 -;
#X obj 149 7 inlet fatness;
#X obj 149 31 * 5;
#X obj 112 238 outlet~;
#X obj 60 137 phasor~ 55;
#X obj 146 136 phasor~ 55;
#X obj 149 53 t b b f f;
#X connect 0 0 8 0;
#X connect 1 0 0 0;
#X connect 2 0 0 1;
#X connect 3 0 5 0;
#X connect 3 0 4 0;
#X connect 4 0 10 0;
#X connect 5 0 9 0;
#X connect 6 0 7 0;
#X connect 7 0 11 0;
#X connect 9 0 1 0;
#X connect 10 0 2 0;
#X connect 11 0 5 0;
#X connect 11 1 4 0;
#X connect 11 2 5 1;
#X connect 11 3 4 1;
#X restore 162 240 pd fatoscillator;
#X obj 201 414 t b f;
#X obj 199 347 t b f;
#X obj 191 438 + 20;
#N canvas 0 50 450 300 envelope 0;
#X obj 175 243 line;
#X msg 194 219 1 \$1;
#X msg 150 218 0 \$1;
#X obj 150 146 t b b;
#X obj 175 267 outlet;
#X obj 187 46 inlet attack;
#X obj 289 45 inlet decay;
#X obj 77 46 inlet trigger;
#X obj 187 87 t f f;
#X obj 150 196 f 50;
#X obj 194 197 f 50;
#X text 235 199 <-- default values 50 ms;
#X text 236 88 <-- set floats nicely;
#X obj 150 173 del 50;
#X text 151 9 envelope subpatch;
#X connect 0 0 4 0;
#X connect 1 0 0 0;
#X connect 2 0 0 0;
#X connect 3 0 13 0;
#X connect 3 1 10 0;
#X connect 5 0 8 0;
#X connect 6 0 9 1;
#X connect 7 0 3 0;
#X connect 8 0 13 1;
#X connect 8 1 10 1;
#X connect 9 0 2 0;
#X connect 10 0 1 0;
#X connect 13 0 9 0;
#X restore 179 517 pd envelope;
#X obj 163 540 *~;
#X obj 162 90 r \$0-oscf;
#X obj 269 213 r \$0-oscfat;
#X obj 227 277 r \$0-fenva;
#X obj 264 256 r \$0-fenvd;
#X obj 215 482 r \$0-aenva;
#X obj 251 458 r \$0-aenvd;
#X obj 200 552 r \$0-amp;
#X obj 226 438 r \$0-fres;
#X obj 199 325 r \$0-frng;
#X obj 201 393 r \$0-frle;
#X obj 162 607 outlet~;
#X obj 231 64 inlet;
#X obj 261 172 t b b;
#X obj 231 89 t f b;
#X obj 162 215 mtof;
#X obj 162 139 * 12;
#X obj 162 192 +;
#X obj 162 115 - 2;
#X obj 171 162 t b f;
#X text -29 140 times 12 to get octaves ->;
#X text -30 113 offset for negative ----->;
#X text -31 85 octave shift in --------->;
#X text -27 213 midi convert ------------>;
#X text -29 189 add to incomming note --->;
#X connect 0 0 21 0;
#X connect 1 0 2 0;
#X connect 2 0 10 0;
#X connect 3 0 4 0;
#X connect 4 0 8 0;
#X connect 5 0 1 0;
#X connect 6 0 8 0;
#X connect 6 1 8 1;
#X connect 7 0 4 0;
#X connect 7 1 4 1;
#X connect 8 0 1 1;
#X connect 9 0 10 1;
#X connect 10 0 0 0;
#X connect 11 0 28 0;
#X connect 12 0 5 1;
#X connect 13 0 3 1;
#X connect 14 0 3 2;
#X connect 15 0 9 1;
#X connect 16 0 9 2;
#X connect 17 0 0 1;
#X connect 18 0 1 2;
#X connect 19 0 7 0;
#X connect 20 0 6 0;
#X connect 22 0 24 0;
#X connect 23 0 9 0;
#X connect 23 1 3 0;
#X connect 24 0 29 0;
#X connect 24 1 23 0;
#X connect 25 0 5 0;
#X connect 26 0 27 0;
#X connect 27 0 25 0;
#X connect 28 0 26 0;
#X connect 29 0 27 0;
#X connect 29 1 27 1;
#X restore 414 336 pd synth1;
#X msg 870 99 10;
#X obj 810 72 t b b b;
#X msg 783 101 3;
#X msg 825 101 6;
#X obj 37 247 f;
#X obj 228 215 t b b f;
#X obj 338 217 t b b f;
#X obj 457 217 t b b f;
#X obj 292 485 outlet~;
#X obj 29 22 inlet;
#X obj 216 388 *~ 1;
#X obj 237 365 r gain1;
#X obj 285 387 *~ 1;
#X obj 354 385 *~ 1;
#X obj 427 387 *~ 1;
#X obj 307 366 r gain2;
#X obj 377 365 r gain3;
#X obj 447 367 r gain4;
#X obj 123 32 r 3M;
#X obj 269 30 r 3m;
#X obj 421 29 r 3M7;
#X obj 551 32 r 3m7;
#X obj 679 31 r 3-7;
#X obj 811 30 r 3dim;
#X connect 0 0 16 0;
#X connect 1 0 17 0;
#X connect 2 0 18 0;
#X connect 3 0 39 0;
#X connect 4 0 17 0;
#X connect 5 0 18 0;
#X connect 6 0 16 0;
#X connect 7 0 17 0;
#X connect 8 0 17 0;
#X connect 9 0 17 0;
#X connect 10 0 16 0;
#X connect 11 0 18 0;
#X connect 12 0 16 0;
#X connect 13 0 18 0;
#X connect 14 0 16 0;
#X connect 15 0 18 0;
#X connect 16 0 36 0;
#X connect 17 0 37 0;
#X connect 18 0 38 0;
#X connect 19 0 0 0;
#X connect 19 1 1 0;
#X connect 19 2 2 0;
#X connect 20 0 28 0;
#X connect 21 0 29 0;
#X connect 22 0 30 0;
#X connect 23 0 10 0;
#X connect 23 1 4 0;
#X connect 23 2 5 0;
#X connect 24 0 6 0;
#X connect 24 1 7 0;
#X connect 24 2 11 0;
#X connect 25 0 12 0;
#X connect 25 1 8 0;
#X connect 25 2 13 0;
#X connect 26 0 14 0;
#X connect 26 1 9 0;
#X connect 26 2 15 0;
#X connect 27 0 41 0;
#X connect 28 0 43 0;
#X connect 29 0 44 0;
#X connect 30 0 45 0;
#X connect 31 0 18 0;
#X connect 32 0 33 0;
#X connect 32 1 34 0;
#X connect 32 2 31 0;
#X connect 33 0 16 0;
#X connect 34 0 17 0;
#X connect 35 0 20 0;
#X connect 35 0 21 0;
#X connect 35 0 22 0;
#X connect 35 0 27 0;
#X connect 36 0 35 0;
#X connect 36 1 20 0;
#X connect 36 2 20 1;
#X connect 37 0 35 0;
#X connect 37 1 21 0;
#X connect 37 2 21 1;
#X connect 38 0 35 0;
#X connect 38 1 22 0;
#X connect 38 2 22 1;
#X connect 40 0 35 1;
#X connect 41 0 3 0;
#X connect 42 0 41 1;
#X connect 43 0 3 1;
#X connect 44 0 3 2;
#X connect 45 0 3 3;
#X connect 46 0 43 1;
#X connect 47 0 44 1;
#X connect 48 0 45 1;
#X connect 49 0 19 0;
#X connect 50 0 23 0;
#X connect 51 0 24 0;
#X connect 52 0 25 0;
#X connect 53 0 26 0;
#X connect 54 0 32 0;
#X restore 383 246 pd chord;
#N canvas 2039 195 976 558 chord 0;
#X msg 113 113 4;
#X msg 158 112 7;
#X msg 201 110 0;
#N canvas 1460 273 450 300 sum~ 0;
#X obj 60 24 inlet~;
#X obj 137 24 inlet~;
#X obj 215 23 inlet~;
#X obj 299 21 inlet~;
#X obj 114 102 +~;
#X obj 267 102 +~;
#X obj 187 149 +~;
#X obj 188 191 outlet~;
#X obj 59 57 *~ 0.5;
#X obj 148 57 *~ 0.5;
#X obj 214 56 *~ 0.5;
#X obj 298 54 *~ 0.5;
#X connect 0 0 8 0;
#X connect 1 0 9 0;
#X connect 2 0 10 0;
#X connect 3 0 11 0;
#X connect 4 0 6 0;
#X connect 5 0 6 1;
#X connect 6 0 7 0;
#X connect 8 0 4 0;
#X connect 9 0 4 1;
#X connect 10 0 5 0;
#X connect 11 0 5 1;
#X restore 293 422 pd sum~;
#X msg 290 109 7;
#X msg 332 108 0;
#X msg 381 108 4;
#X msg 426 107 7;
#X msg 563 104 7;
#X msg 694 104 7;
#X msg 245 110 3;
#X msg 469 107 11;
#X msg 518 105 3;
#X msg 605 103 10;
#X msg 652 104 4;
#X msg 739 102 10;
#X obj 228 185 f;
#X obj 338 187 f;
#X obj 457 188 f;
#X obj 121 82 t b b b;
#X obj 289 276 +;
#X obj 342 274 +;
#X obj 395 274 +;
#X obj 271 79 t b b b;
#X obj 421 77 t b b b;
#X obj 551 76 t b b b;
#X obj 679 75 t b b b;
#N canvas 991 136 471 666 synth1 0;
#X obj 163 577 *~ 0.2;
#X obj 162 463 bp~ 100 3;
#X obj 162 489 hip~ 60;
#N canvas 0 86 450 300 envelope 0;
#X obj 175 243 line;
#X msg 194 219 1 \$1;
#X msg 150 218 0 \$1;
#X obj 150 146 t b b;
#X obj 175 267 outlet;
#X obj 187 46 inlet attack;
#X obj 289 45 inlet decay;
#X obj 77 46 inlet trigger;
#X obj 187 87 t f f;
#X obj 150 196 f 50;
#X obj 194 197 f 50;
#X text 235 199 <-- default values 50 ms;
#X text 236 88 <-- set floats nicely;
#X obj 150 173 del 50;
#X text 151 9 envelope subpatch;
#X connect 0 0 4 0;
#X connect 1 0 0 0;
#X connect 2 0 0 0;
#X connect 3 0 13 0;
#X connect 3 1 10 0;
#X connect 5 0 8 0;
#X connect 6 0 9 1;
#X connect 7 0 3 0;
#X connect 8 0 13 1;
#X connect 8 1 10 1;
#X connect 9 0 2 0;
#X connect 10 0 1 0;
#X connect 13 0 9 0;
#X restore 191 303 pd envelope;
#X obj 191 371 * 3000;
#N canvas 0 50 450 300 fatoscillator 0;
#X obj 113 206 +~;
#X obj 61 165 -~ 0.5;
#X obj 147 164 -~ 0.5;
#X obj 60 8 inlet pitch;
#X obj 146 108 +;
#X obj 60 109 -;
#X obj 149 7 inlet fatness;
#X obj 149 31 * 5;
#X obj 112 238 outlet~;
#X obj 60 137 phasor~ 55;
#X obj 146 136 phasor~ 55;
#X obj 149 53 t b b f f;
#X connect 0 0 8 0;
#X connect 1 0 0 0;
#X connect 2 0 0 1;
#X connect 3 0 5 0;
#X connect 3 0 4 0;
#X connect 4 0 10 0;
#X connect 5 0 9 0;
#X connect 6 0 7 0;
#X connect 7 0 11 0;
#X connect 9 0 1 0;
#X connect 10 0 2 0;
#X connect 11 0 5 0;
#X connect 11 1 4 0;
#X connect 11 2 5 1;
#X connect 11 3 4 1;
#X restore 162 240 pd fatoscillator;
#X obj 201 414 t b f;
#X obj 199 347 t b f;
#X obj 191 438 + 20;
#N canvas 491 129 450 300 envelope 0;
#X obj 175 243 line;
#X msg 194 219 1 \$1;
#X msg 150 218 0 \$1;
#X obj 150 146 t b b;
#X obj 175 267 outlet;
#X obj 187 46 inlet attack;
#X obj 289 45 inlet decay;
#X obj 77 46 inlet trigger;
#X obj 187 87 t f f;
#X obj 150 196 f 50;
#X obj 194 197 f 50;
#X text 235 199 <-- default values 50 ms;
#X text 236 88 <-- set floats nicely;
#X obj 150 173 del 50;
#X text 151 9 envelope subpatch;
#X connect 0 0 4 0;
#X connect 1 0 0 0;
#X connect 2 0 0 0;
#X connect 3 0 13 0;
#X connect 3 1 10 0;
#X connect 5 0 8 0;
#X connect 6 0 9 1;
#X connect 7 0 3 0;
#X connect 8 0 13 1;
#X connect 8 1 10 1;
#X connect 9 0 2 0;
#X connect 10 0 1 0;
#X connect 13 0 9 0;
#X restore 179 517 pd envelope;
#X obj 163 540 *~;
#X obj 162 90 r \$0-oscf;
#X obj 269 213 r \$0-oscfat;
#X obj 227 277 r \$0-fenva;
#X obj 264 256 r \$0-fenvd;
#X obj 215 482 r \$0-aenva;
#X obj 251 458 r \$0-aenvd;
#X obj 200 552 r \$0-amp;
#X obj 226 438 r \$0-fres;
#X obj 199 325 r \$0-frng;
#X obj 201 393 r \$0-frle;
#X obj 162 607 outlet~;
#X obj 231 64 inlet;
#X obj 261 172 t b b;
#X obj 231 89 t f b;
#X obj 162 215 mtof;
#X obj 162 139 * 12;
#X obj 162 192 +;
#X obj 162 115 - 2;
#X obj 171 162 t b f;
#X text -29 140 times 12 to get octaves ->;
#X text -30 113 offset for negative ----->;
#X text -31 85 octave shift in --------->;
#X text -27 213 midi convert ------------>;
#X text -29 189 add to incomming note --->;
#X connect 0 0 21 0;
#X connect 1 0 2 0;
#X connect 2 0 10 0;
#X connect 3 0 4 0;
#X connect 4 0 8 0;
#X connect 5 0 1 0;
#X connect 6 0 8 0;
#X connect 6 1 8 1;
#X connect 7 0 4 0;
#X connect 7 1 4 1;
#X connect 8 0 1 1;
#X connect 9 0 10 1;
#X connect 10 0 0 0;
#X connect 11 0 28 0;
#X connect 12 0 5 1;
#X connect 13 0 3 1;
#X connect 14 0 3 2;
#X connect 15 0 9 1;
#X connect 16 0 9 2;
#X connect 17 0 0 1;
#X connect 18 0 1 2;
#X connect 19 0 7 0;
#X connect 20 0 6 0;
#X connect 22 0 24 0;
#X connect 23 0 9 0;
#X connect 23 1 3 0;
#X connect 24 0 29 0;
#X connect 24 1 23 0;
#X connect 25 0 5 0;
#X connect 26 0 27 0;
#X connect 27 0 25 0;
#X connect 28 0 26 0;
#X connect 29 0 27 0;
#X connect 29 1 27 1;
#X restore 179 339 pd synth1;
#N canvas 102 107 471 666 synth1 0;
#X obj 163 577 *~ 0.2;
#X obj 162 463 bp~ 100 3;
#X obj 162 489 hip~ 60;
#N canvas 0 50 450 300 envelope 0;
#X obj 175 243 line;
#X msg 194 219 1 \$1;
#X msg 150 218 0 \$1;
#X obj 150 146 t b b;
#X obj 175 267 outlet;
#X obj 187 46 inlet attack;
#X obj 289 45 inlet decay;
#X obj 77 46 inlet trigger;
#X obj 187 87 t f f;
#X obj 150 196 f 50;
#X obj 194 197 f 50;
#X text 235 199 <-- default values 50 ms;
#X text 236 88 <-- set floats nicely;
#X obj 150 173 del 50;
#X text 151 9 envelope subpatch;
#X connect 0 0 4 0;
#X connect 1 0 0 0;
#X connect 2 0 0 0;
#X connect 3 0 13 0;
#X connect 3 1 10 0;
#X connect 5 0 8 0;
#X connect 6 0 9 1;
#X connect 7 0 3 0;
#X connect 8 0 13 1;
#X connect 8 1 10 1;
#X connect 9 0 2 0;
#X connect 10 0 1 0;
#X connect 13 0 9 0;
#X restore 191 303 pd envelope;
#X obj 191 371 * 3000;
#N canvas 0 50 450 300 fatoscillator 0;
#X obj 113 206 +~;
#X obj 61 165 -~ 0.5;
#X obj 147 164 -~ 0.5;
#X obj 60 8 inlet pitch;
#X obj 146 108 +;
#X obj 60 109 -;
#X obj 149 7 inlet fatness;
#X obj 149 31 * 5;
#X obj 112 238 outlet~;
#X obj 60 137 phasor~ 55;
#X obj 146 136 phasor~ 55;
#X obj 149 53 t b b f f;
#X connect 0 0 8 0;
#X connect 1 0 0 0;
#X connect 2 0 0 1;
#X connect 3 0 5 0;
#X connect 3 0 4 0;
#X connect 4 0 10 0;
#X connect 5 0 9 0;
#X connect 6 0 7 0;
#X connect 7 0 11 0;
#X connect 9 0 1 0;
#X connect 10 0 2 0;
#X connect 11 0 5 0;
#X connect 11 1 4 0;
#X connect 11 2 5 1;
#X connect 11 3 4 1;
#X restore 162 240 pd fatoscillator;
#X obj 201 414 t b f;
#X obj 199 347 t b f;
#X obj 191 438 + 20;
#N canvas 0 50 450 300 envelope 0;
#X obj 175 243 line;
#X msg 194 219 1 \$1;
#X msg 150 218 0 \$1;
#X obj 150 146 t b b;
#X obj 175 267 outlet;
#X obj 187 46 inlet attack;
#X obj 289 45 inlet decay;
#X obj 77 46 inlet trigger;
#X obj 187 87 t f f;
#X obj 150 196 f 50;
#X obj 194 197 f 50;
#X text 235 199 <-- default values 50 ms;
#X text 236 88 <-- set floats nicely;
#X obj 150 173 del 50;
#X text 151 9 envelope subpatch;
#X connect 0 0 4 0;
#X connect 1 0 0 0;
#X connect 2 0 0 0;
#X connect 3 0 13 0;
#X connect 3 1 10 0;
#X connect 5 0 8 0;
#X connect 6 0 9 1;
#X connect 7 0 3 0;
#X connect 8 0 13 1;
#X connect 8 1 10 1;
#X connect 9 0 2 0;
#X connect 10 0 1 0;
#X connect 13 0 9 0;
#X restore 179 517 pd envelope;
#X obj 163 540 *~;
#X obj 162 90 r \$0-oscf;
#X obj 269 213 r \$0-oscfat;
#X obj 227 277 r \$0-fenva;
#X obj 264 256 r \$0-fenvd;
#X obj 215 482 r \$0-aenva;
#X obj 251 458 r \$0-aenvd;
#X obj 200 552 r \$0-amp;
#X obj 226 438 r \$0-fres;
#X obj 199 325 r \$0-frng;
#X obj 201 393 r \$0-frle;
#X obj 162 607 outlet~;
#X obj 231 64 inlet;
#X obj 261 172 t b b;
#X obj 231 89 t f b;
#X obj 162 215 mtof;
#X obj 162 139 * 12;
#X obj 162 192 +;
#X obj 162 115 - 2;
#X obj 171 162 t b f;
#X text -29 140 times 12 to get octaves ->;
#X text -30 113 offset for negative ----->;
#X text -31 85 octave shift in --------->;
#X text -27 213 midi convert ------------>;
#X text -29 189 add to incomming note --->;
#X connect 0 0 21 0;
#X connect 1 0 2 0;
#X connect 2 0 10 0;
#X connect 3 0 4 0;
#X connect 4 0 8 0;
#X connect 5 0 1 0;
#X connect 6 0 8 0;
#X connect 6 1 8 1;
#X connect 7 0 4 0;
#X connect 7 1 4 1;
#X connect 8 0 1 1;
#X connect 9 0 10 1;
#X connect 10 0 0 0;
#X connect 11 0 28 0;
#X connect 12 0 5 1;
#X connect 13 0 3 1;
#X connect 14 0 3 2;
#X connect 15 0 9 1;
#X connect 16 0 9 2;
#X connect 17 0 0 1;
#X connect 18 0 1 2;
#X connect 19 0 7 0;
#X connect 20 0 6 0;
#X connect 22 0 24 0;
#X connect 23 0 9 0;
#X connect 23 1 3 0;
#X connect 24 0 29 0;
#X connect 24 1 23 0;
#X connect 25 0 5 0;
#X connect 26 0 27 0;
#X connect 27 0 25 0;
#X connect 28 0 26 0;
#X connect 29 0 27 0;
#X connect 29 1 27 1;
#X restore 261 338 pd synth1;
#N canvas 102 107 471 666 synth1 0;
#X obj 163 577 *~ 0.2;
#X obj 162 463 bp~ 100 3;
#X obj 162 489 hip~ 60;
#N canvas 0 50 450 300 envelope 0;
#X obj 175 243 line;
#X msg 194 219 1 \$1;
#X msg 150 218 0 \$1;
#X obj 150 146 t b b;
#X obj 175 267 outlet;
#X obj 187 46 inlet attack;
#X obj 289 45 inlet decay;
#X obj 77 46 inlet trigger;
#X obj 187 87 t f f;
#X obj 150 196 f 50;
#X obj 194 197 f 50;
#X text 235 199 <-- default values 50 ms;
#X text 236 88 <-- set floats nicely;
#X obj 150 173 del 50;
#X text 151 9 envelope subpatch;
#X connect 0 0 4 0;
#X connect 1 0 0 0;
#X connect 2 0 0 0;
#X connect 3 0 13 0;
#X connect 3 1 10 0;
#X connect 5 0 8 0;
#X connect 6 0 9 1;
#X connect 7 0 3 0;
#X connect 8 0 13 1;
#X connect 8 1 10 1;
#X connect 9 0 2 0;
#X connect 10 0 1 0;
#X connect 13 0 9 0;
#X restore 191 303 pd envelope;
#X obj 191 371 * 3000;
#N canvas 0 50 450 300 fatoscillator 0;
#X obj 113 206 +~;
#X obj 61 165 -~ 0.5;
#X obj 147 164 -~ 0.5;
#X obj 60 8 inlet pitch;
#X obj 146 108 +;
#X obj 60 109 -;
#X obj 149 7 inlet fatness;
#X obj 149 31 * 5;
#X obj 112 238 outlet~;
#X obj 60 137 phasor~ 55;
#X obj 146 136 phasor~ 55;
#X obj 149 53 t b b f f;
#X connect 0 0 8 0;
#X connect 1 0 0 0;
#X connect 2 0 0 1;
#X connect 3 0 5 0;
#X connect 3 0 4 0;
#X connect 4 0 10 0;
#X connect 5 0 9 0;
#X connect 6 0 7 0;
#X connect 7 0 11 0;
#X connect 9 0 1 0;
#X connect 10 0 2 0;
#X connect 11 0 5 0;
#X connect 11 1 4 0;
#X connect 11 2 5 1;
#X connect 11 3 4 1;
#X restore 162 240 pd fatoscillator;
#X obj 201 414 t b f;
#X obj 199 347 t b f;
#X obj 191 438 + 20;
#N canvas 0 50 450 300 envelope 0;
#X obj 175 243 line;
#X msg 194 219 1 \$1;
#X msg 150 218 0 \$1;
#X obj 150 146 t b b;
#X obj 175 267 outlet;
#X obj 187 46 inlet attack;
#X obj 289 45 inlet decay;
#X obj 77 46 inlet trigger;
#X obj 187 87 t f f;
#X obj 150 196 f 50;
#X obj 194 197 f 50;
#X text 235 199 <-- default values 50 ms;
#X text 236 88 <-- set floats nicely;
#X obj 150 173 del 50;
#X text 151 9 envelope subpatch;
#X connect 0 0 4 0;
#X connect 1 0 0 0;
#X connect 2 0 0 0;
#X connect 3 0 13 0;
#X connect 3 1 10 0;
#X connect 5 0 8 0;
#X connect 6 0 9 1;
#X connect 7 0 3 0;
#X connect 8 0 13 1;
#X connect 8 1 10 1;
#X connect 9 0 2 0;
#X connect 10 0 1 0;
#X connect 13 0 9 0;
#X restore 179 517 pd envelope;
#X obj 163 540 *~;
#X obj 162 90 r \$0-oscf;
#X obj 269 213 r \$0-oscfat;
#X obj 227 277 r \$0-fenva;
#X obj 264 256 r \$0-fenvd;
#X obj 215 482 r \$0-aenva;
#X obj 251 458 r \$0-aenvd;
#X obj 200 552 r \$0-amp;
#X obj 226 438 r \$0-fres;
#X obj 199 325 r \$0-frng;
#X obj 201 393 r \$0-frle;
#X obj 162 607 outlet~;
#X obj 231 64 inlet;
#X obj 261 172 t b b;
#X obj 231 89 t f b;
#X obj 162 215 mtof;
#X obj 162 139 * 12;
#X obj 162 192 +;
#X obj 162 115 - 2;
#X obj 171 162 t b f;
#X text -29 140 times 12 to get octaves ->;
#X text -30 113 offset for negative ----->;
#X text -31 85 octave shift in --------->;
#X text -27 213 midi convert ------------>;
#X text -29 189 add to incomming note --->;
#X connect 0 0 21 0;
#X connect 1 0 2 0;
#X connect 2 0 10 0;
#X connect 3 0 4 0;
#X connect 4 0 8 0;
#X connect 5 0 1 0;
#X connect 6 0 8 0;
#X connect 6 1 8 1;
#X connect 7 0 4 0;
#X connect 7 1 4 1;
#X connect 8 0 1 1;
#X connect 9 0 10 1;
#X connect 10 0 0 0;
#X connect 11 0 28 0;
#X connect 12 0 5 1;
#X connect 13 0 3 1;
#X connect 14 0 3 2;
#X connect 15 0 9 1;
#X connect 16 0 9 2;
#X connect 17 0 0 1;
#X connect 18 0 1 2;
#X connect 19 0 7 0;
#X connect 20 0 6 0;
#X connect 22 0 24 0;
#X connect 23 0 9 0;
#X connect 23 1 3 0;
#X connect 24 0 29 0;
#X connect 24 1 23 0;
#X connect 25 0 5 0;
#X connect 26 0 27 0;
#X connect 27 0 25 0;
#X connect 28 0 26 0;
#X connect 29 0 27 0;
#X connect 29 1 27 1;
#X restore 339 337 pd synth1;
#N canvas 102 107 471 666 synth1 0;
#X obj 163 577 *~ 0.2;
#X obj 162 463 bp~ 100 3;
#X obj 162 489 hip~ 60;
#N canvas 0 50 450 300 envelope 0;
#X obj 175 243 line;
#X msg 194 219 1 \$1;
#X msg 150 218 0 \$1;
#X obj 150 146 t b b;
#X obj 175 267 outlet;
#X obj 187 46 inlet attack;
#X obj 289 45 inlet decay;
#X obj 77 46 inlet trigger;
#X obj 187 87 t f f;
#X obj 150 196 f 50;
#X obj 194 197 f 50;
#X text 235 199 <-- default values 50 ms;
#X text 236 88 <-- set floats nicely;
#X obj 150 173 del 50;
#X text 151 9 envelope subpatch;
#X connect 0 0 4 0;
#X connect 1 0 0 0;
#X connect 2 0 0 0;
#X connect 3 0 13 0;
#X connect 3 1 10 0;
#X connect 5 0 8 0;
#X connect 6 0 9 1;
#X connect 7 0 3 0;
#X connect 8 0 13 1;
#X connect 8 1 10 1;
#X connect 9 0 2 0;
#X connect 10 0 1 0;
#X connect 13 0 9 0;
#X restore 191 303 pd envelope;
#X obj 191 371 * 3000;
#N canvas 0 50 450 300 fatoscillator 0;
#X obj 113 206 +~;
#X obj 61 165 -~ 0.5;
#X obj 147 164 -~ 0.5;
#X obj 60 8 inlet pitch;
#X obj 146 108 +;
#X obj 60 109 -;
#X obj 149 7 inlet fatness;
#X obj 149 31 * 5;
#X obj 112 238 outlet~;
#X obj 60 137 phasor~ 55;
#X obj 146 136 phasor~ 55;
#X obj 149 53 t b b f f;
#X connect 0 0 8 0;
#X connect 1 0 0 0;
#X connect 2 0 0 1;
#X connect 3 0 5 0;
#X connect 3 0 4 0;
#X connect 4 0 10 0;
#X connect 5 0 9 0;
#X connect 6 0 7 0;
#X connect 7 0 11 0;
#X connect 9 0 1 0;
#X connect 10 0 2 0;
#X connect 11 0 5 0;
#X connect 11 1 4 0;
#X connect 11 2 5 1;
#X connect 11 3 4 1;
#X restore 162 240 pd fatoscillator;
#X obj 201 414 t b f;
#X obj 199 347 t b f;
#X obj 191 438 + 20;
#N canvas 0 50 450 300 envelope 0;
#X obj 175 243 line;
#X msg 194 219 1 \$1;
#X msg 150 218 0 \$1;
#X obj 150 146 t b b;
#X obj 175 267 outlet;
#X obj 187 46 inlet attack;
#X obj 289 45 inlet decay;
#X obj 77 46 inlet trigger;
#X obj 187 87 t f f;
#X obj 150 196 f 50;
#X obj 194 197 f 50;
#X text 235 199 <-- default values 50 ms;
#X text 236 88 <-- set floats nicely;
#X obj 150 173 del 50;
#X text 151 9 envelope subpatch;
#X connect 0 0 4 0;
#X connect 1 0 0 0;
#X connect 2 0 0 0;
#X connect 3 0 13 0;
#X connect 3 1 10 0;
#X connect 5 0 8 0;
#X connect 6 0 9 1;
#X connect 7 0 3 0;
#X connect 8 0 13 1;
#X connect 8 1 10 1;
#X connect 9 0 2 0;
#X connect 10 0 1 0;
#X connect 13 0 9 0;
#X restore 179 517 pd envelope;
#X obj 163 540 *~;
#X obj 162 90 r \$0-oscf;
#X obj 269 213 r \$0-oscfat;
#X obj 227 277 r \$0-fenva;
#X obj 264 256 r \$0-fenvd;
#X obj 215 482 r \$0-aenva;
#X obj 251 458 r \$0-aenvd;
#X obj 200 552 r \$0-amp;
#X obj 226 438 r \$0-fres;
#X obj 199 325 r \$0-frng;
#X obj 201 393 r \$0-frle;
#X obj 162 607 outlet~;
#X obj 231 64 inlet;
#X obj 261 172 t b b;
#X obj 231 89 t f b;
#X obj 162 215 mtof;
#X obj 162 139 * 12;
#X obj 162 192 +;
#X obj 162 115 - 2;
#X obj 171 162 t b f;
#X text -29 140 times 12 to get octaves ->;
#X text -30 113 offset for negative ----->;
#X text -31 85 octave shift in --------->;
#X text -27 213 midi convert ------------>;
#X text -29 189 add to incomming note --->;
#X connect 0 0 21 0;
#X connect 1 0 2 0;
#X connect 2 0 10 0;
#X connect 3 0 4 0;
#X connect 4 0 8 0;
#X connect 5 0 1 0;
#X connect 6 0 8 0;
#X connect 6 1 8 1;
#X connect 7 0 4 0;
#X connect 7 1 4 1;
#X connect 8 0 1 1;
#X connect 9 0 10 1;
#X connect 10 0 0 0;
#X connect 11 0 28 0;
#X connect 12 0 5 1;
#X connect 13 0 3 1;
#X connect 14 0 3 2;
#X connect 15 0 9 1;
#X connect 16 0 9 2;
#X connect 17 0 0 1;
#X connect 18 0 1 2;
#X connect 19 0 7 0;
#X connect 20 0 6 0;
#X connect 22 0 24 0;
#X connect 23 0 9 0;
#X connect 23 1 3 0;
#X connect 24 0 29 0;
#X connect 24 1 23 0;
#X connect 25 0 5 0;
#X connect 26 0 27 0;
#X connect 27 0 25 0;
#X connect 28 0 26 0;
#X connect 29 0 27 0;
#X connect 29 1 27 1;
#X restore 414 336 pd synth1;
#X msg 870 99 10;
#X obj 810 72 t b b b;
#X msg 783 101 3;
#X msg 825 101 6;
#X obj 37 247 f;
#X obj 228 215 t b b f;
#X obj 338 217 t b b f;
#X obj 457 217 t b b f;
#X obj 292 485 outlet~;
#X obj 29 22 inlet;
#X obj 216 388 *~ 1;
#X obj 237 365 r gain1;
#X obj 285 387 *~ 1;
#X obj 354 385 *~ 1;
#X obj 427 387 *~ 1;
#X obj 307 366 r gain2;
#X obj 377 365 r gain3;
#X obj 447 367 r gain4;
#X obj 123 33 r 4M;
#X obj 268 30 r 4m;
#X obj 424 35 r 4M7;
#X obj 551 33 r 4m7;
#X obj 679 32 r 4-7;
#X obj 810 28 r 4dim;
#X connect 0 0 16 0;
#X connect 1 0 17 0;
#X connect 2 0 18 0;
#X connect 3 0 39 0;
#X connect 4 0 17 0;
#X connect 5 0 18 0;
#X connect 6 0 16 0;
#X connect 7 0 17 0;
#X connect 8 0 17 0;
#X connect 9 0 17 0;
#X connect 10 0 16 0;
#X connect 11 0 18 0;
#X connect 12 0 16 0;
#X connect 13 0 18 0;
#X connect 14 0 16 0;
#X connect 15 0 18 0;
#X connect 16 0 36 0;
#X connect 17 0 37 0;
#X connect 18 0 38 0;
#X connect 19 0 0 0;
#X connect 19 1 1 0;
#X connect 19 2 2 0;
#X connect 20 0 28 0;
#X connect 21 0 29 0;
#X connect 22 0 30 0;
#X connect 23 0 10 0;
#X connect 23 1 4 0;
#X connect 23 2 5 0;
#X connect 24 0 6 0;
#X connect 24 1 7 0;
#X connect 24 2 11 0;
#X connect 25 0 12 0;
#X connect 25 1 8 0;
#X connect 25 2 13 0;
#X connect 26 0 14 0;
#X connect 26 1 9 0;
#X connect 26 2 15 0;
#X connect 27 0 41 0;
#X connect 28 0 43 0;
#X connect 29 0 44 0;
#X connect 30 0 45 0;
#X connect 31 0 18 0;
#X connect 32 0 33 0;
#X connect 32 1 34 0;
#X connect 32 2 31 0;
#X connect 33 0 16 0;
#X connect 34 0 17 0;
#X connect 35 0 20 0;
#X connect 35 0 21 0;
#X connect 35 0 22 0;
#X connect 35 0 27 0;
#X connect 36 0 35 0;
#X connect 36 1 20 0;
#X connect 36 2 20 1;
#X connect 37 0 35 0;
#X connect 37 1 21 0;
#X connect 37 2 21 1;
#X connect 38 0 35 0;
#X connect 38 1 22 0;
#X connect 38 2 22 1;
#X connect 40 0 35 1;
#X connect 41 0 3 0;
#X connect 42 0 41 1;
#X connect 43 0 3 1;
#X connect 44 0 3 2;
#X connect 45 0 3 3;
#X connect 46 0 43 1;
#X connect 47 0 44 1;
#X connect 48 0 45 1;
#X connect 49 0 19 0;
#X connect 50 0 23 0;
#X connect 51 0 24 0;
#X connect 52 0 25 0;
#X connect 53 0 26 0;
#X connect 54 0 32 0;
#X restore 467 243 pd chord;
#X obj 198 385 dac~;
#N canvas 2223 44 450 300 mutex 0;
#X obj 120 75 i;
#X obj 120 96 + 1;
#X obj 114 23 inlet;
#X obj 120 143 select 0 1 2 3;
#X obj 120 119 % 4;
#X obj 71 257 s 1m;
#X obj 166 257 s 2m;
#X obj 233 255 s 3m;
#X obj 290 254 s 4m;
#X connect 0 0 1 0;
#X connect 1 0 0 1;
#X connect 1 0 4 0;
#X connect 2 0 0 0;
#X connect 3 0 5 0;
#X connect 3 1 6 0;
#X connect 3 2 7 0;
#X connect 3 3 8 0;
#X connect 4 0 3 0;
#X restore 187 76 pd mutex;
#N canvas 2150 88 450 300 mutex 0;
#X obj 120 75 i;
#X obj 120 96 + 1;
#X obj 114 23 inlet;
#X obj 120 143 select 0 1 2 3;
#X obj 120 119 % 4;
#X obj 75 243 s 1M7;
#X obj 170 243 s 2M7;
#X obj 237 240 s 3M7;
#X obj 294 238 s 4M7;
#X connect 0 0 1 0;
#X connect 1 0 0 1;
#X connect 1 0 4 0;
#X connect 2 0 0 0;
#X connect 3 0 5 0;
#X connect 3 1 6 0;
#X connect 3 2 7 0;
#X connect 3 3 8 0;
#X connect 4 0 3 0;
#X restore 301 73 pd mutex;
#N canvas 2273 109 450 300 mutex 0;
#X obj 120 75 i;
#X obj 120 96 + 1;
#X obj 114 23 inlet;
#X obj 120 143 select 0 1 2 3;
#X obj 120 119 % 4;
#X obj 65 247 s 1m7;
#X obj 160 247 s 2m7;
#X obj 227 245 s 3m7;
#X obj 284 245 s 4m7;
#X connect 0 0 1 0;
#X connect 1 0 0 1;
#X connect 1 0 4 0;
#X connect 2 0 0 0;
#X connect 3 0 5 0;
#X connect 3 1 6 0;
#X connect 3 2 7 0;
#X connect 3 3 8 0;
#X connect 4 0 3 0;
#X restore 431 72 pd mutex;
#N canvas 2303 113 450 300 mutex 0;
#X obj 120 75 i;
#X obj 120 96 + 1;
#X obj 114 23 inlet;
#X obj 120 143 select 0 1 2 3;
#X obj 120 119 % 4;
#X obj 54 243 s 1-7;
#X obj 149 243 s 2-7;
#X obj 216 241 s 3-7;
#X obj 273 241 s 4-7;
#X connect 0 0 1 0;
#X connect 1 0 0 1;
#X connect 1 0 4 0;
#X connect 2 0 0 0;
#X connect 3 0 5 0;
#X connect 3 1 6 0;
#X connect 3 2 7 0;
#X connect 3 3 8 0;
#X connect 4 0 3 0;
#X restore 544 73 pd mutex;
#N canvas 2238 73 450 300 mutex 0;
#X obj 120 75 i;
#X obj 120 96 + 1;
#X obj 114 23 inlet;
#X obj 120 143 select 0 1 2 3;
#X obj 120 119 % 4;
#X obj 54 251 s 1dim;
#X obj 151 251 s 2dim;
#X obj 218 249 s 3dim;
#X obj 275 248 s 4dim;
#X connect 0 0 1 0;
#X connect 1 0 0 1;
#X connect 1 0 4 0;
#X connect 2 0 0 0;
#X connect 3 0 5 0;
#X connect 3 1 6 0;
#X connect 3 2 7 0;
#X connect 3 3 8 0;
#X connect 4 0 3 0;
#X restore 640 73 pd mutex;
#X obj 282 386 dac~;
#X obj 370 387 dac~;
#X obj 451 389 dac~;
#X obj 388 479 bng 15 250 50 0 empty empty empty 17 7 0 10 -262144
-1 -1;
#N canvas 0 92 450 300 mutex 0;
#X obj 120 75 i;
#X obj 120 96 + 1;
#X obj 114 23 inlet;
#X obj 79 228 outlet;
#X obj 143 229 outlet;
#X obj 120 143 select 0 1 2 3;
#X obj 120 119 % 4;
#X obj 200 229 outlet;
#X obj 257 229 outlet;
#X connect 0 0 1 0;
#X connect 1 0 0 1;
#X connect 1 0 6 0;
#X connect 2 0 0 0;
#X connect 5 0 3 0;
#X connect 5 1 4 0;
#X connect 5 2 7 0;
#X connect 5 3 8 0;
#X connect 6 0 5 0;
#X restore 386 509 pd mutex;
#X obj 390 549 bng 15 250 50 0 empty empty empty 17 7 0 10 -262144
-1 -1;
#X obj 397 566 bng 15 250 50 0 empty empty empty 17 7 0 10 -262144
-1 -1;
#X obj 408 584 bng 15 250 50 0 empty empty empty 17 7 0 10 -262144
-1 -1;
#X obj 417 602 bng 15 250 50 0 empty empty empty 17 7 0 10 -262144
-1 -1;
#X obj 555 272 r gain;
#N canvas 80 202 450 300 gain~ 0;
#X obj 80 50 inlet~;
#X obj 283 53 inlet;
#X obj 195 209 outlet~;
#X obj 195 143 *~;
#X obj 246 81 pack 10;
#X obj 246 103 vline~;
#X connect 0 0 3 0;
#X connect 1 0 4 0;
#X connect 3 0 2 0;
#X connect 4 0 5 0;
#X connect 5 0 3 1;
#X restore 209 315 pd gain~;
#N canvas 80 202 450 300 gain~ 0;
#X obj 80 50 inlet~;
#X obj 283 53 inlet;
#X obj 195 209 outlet~;
#X obj 195 143 *~;
#X obj 246 81 pack 10;
#X obj 246 103 vline~;
#X connect 0 0 3 0;
#X connect 1 0 4 0;
#X connect 3 0 2 0;
#X connect 4 0 5 0;
#X connect 5 0 3 1;
#X restore 303 314 pd gain~;
#N canvas 80 202 450 300 gain~ 0;
#X obj 80 50 inlet~;
#X obj 283 53 inlet;
#X obj 195 209 outlet~;
#X obj 195 143 *~;
#X obj 246 81 pack 10;
#X obj 246 103 vline~;
#X connect 0 0 3 0;
#X connect 1 0 4 0;
#X connect 3 0 2 0;
#X connect 4 0 5 0;
#X connect 5 0 3 1;
#X restore 388 312 pd gain~;
#N canvas 80 202 450 300 gain~ 0;
#X obj 80 50 inlet~;
#X obj 283 53 inlet;
#X obj 195 209 outlet~;
#X obj 195 143 *~;
#X obj 246 81 pack 10;
#X obj 246 103 vline~;
#X connect 0 0 3 0;
#X connect 1 0 4 0;
#X connect 3 0 2 0;
#X connect 4 0 5 0;
#X connect 5 0 3 1;
#X restore 468 311 pd gain~;
#X obj 618 257 loadbang;
#X msg 618 279 1;
#X text 593 234 Default volume;
#X obj 327 125 notein;
#X obj 327 147 stripnote;
#X obj 579 493 loadbang;
#X obj 535 566 s gain1;
#X obj 590 566 s gain1;
#X obj 642 566 s gain1;
#X obj 694 566 s gain1;
#X text 540 598 Chords notes gain initialization;
#X text 449 137 Select a note using the slider or with a midi input
and press a button to hear the corresponding chord;
#X msg 590 544 1;
#X msg 535 544 0.4;
#X msg 642 544 0.6;
#X msg 694 544 0.8;
#X connect 1 0 16 0;
#X connect 1 0 17 0;
#X connect 1 0 18 0;
#X connect 1 0 19 0;
#X connect 2 0 15 0;
#X connect 4 0 21 0;
#X connect 5 0 22 0;
#X connect 6 0 23 0;
#X connect 7 0 24 0;
#X connect 12 0 1 0;
#X connect 13 0 25 0;
#X connect 16 0 36 0;
#X connect 17 0 37 0;
#X connect 18 0 38 0;
#X connect 19 0 39 0;
#X connect 29 0 30 0;
#X connect 30 0 31 0;
#X connect 30 1 32 0;
#X connect 30 2 33 0;
#X connect 30 3 34 0;
#X connect 35 0 39 1;
#X connect 35 0 38 1;
#X connect 35 0 37 1;
#X connect 35 0 36 1;
#X connect 36 0 20 0;
#X connect 36 0 20 1;
#X connect 37 0 26 0;
#X connect 37 0 26 1;
#X connect 38 0 27 0;
#X connect 38 0 27 1;
#X connect 39 0 28 0;
#X connect 39 0 28 1;
#X connect 40 0 41 0;
#X connect 41 0 36 1;
#X connect 41 0 37 1;
#X connect 41 0 38 1;
#X connect 41 0 39 1;
#X connect 43 0 44 0;
#X connect 43 2 44 1;
#X connect 44 0 1 0;
#X connect 45 0 53 0;
#X connect 45 0 52 0;
#X connect 45 0 54 0;
#X connect 45 0 55 0;
#X connect 52 0 47 0;
#X connect 53 0 46 0;
#X connect 54 0 48 0;
#X connect 55 0 49 0;
