#N canvas 974 74 671 541 10;
#X obj 145 25 notein;
#X obj 145 49 stripnote;
#X obj 192 504 dac~;
#N canvas 804 205 450 300 purebass 0;
#X obj 161 7 inlet pitch;
#X obj 236 169 osc~;
#X obj 278 168 osc~;
#X obj 235 267 outlet~ audio;
#X obj 278 70 + 12;
#X obj 236 129 mtof;
#X obj 278 129 mtof;
#X obj 236 203 *~ 0.8;
#X obj 278 203 *~ 0.2;
#X obj 161 36 t b f f;
#X obj 165 147 del 1000;
#X obj 96 196 vline~;
#X obj 235 238 *~;
#X obj 267 7 inlet decay;
#X obj 96 168 pack 1 20;
#X obj 165 168 pack 0 100;
#X obj 48 97 r bassStop;
#X connect 0 0 9 0;
#X connect 1 0 7 0;
#X connect 2 0 8 0;
#X connect 4 0 6 0;
#X connect 5 0 1 0;
#X connect 6 0 2 0;
#X connect 7 0 12 0;
#X connect 8 0 12 0;
#X connect 9 0 10 0;
#X connect 9 0 14 0;
#X connect 9 1 5 0;
#X connect 9 2 4 0;
#X connect 10 0 15 0;
#X connect 11 0 12 1;
#X connect 12 0 3 0;
#X connect 13 0 10 1;
#X connect 14 0 11 0;
#X connect 15 0 11 0;
#X connect 16 0 15 0;
#X restore 146 281 pd purebass;
#N canvas 2208 438 490 270 synthcut 0;
#X obj 15 19 inlet pitch;
#X obj 15 227 outlet~ audio;
#N canvas 2798 258 579 466 interface 0;
#X obj 100 222 cnv 15 100 120 empty empty OSC 8 12 1 14 -258699 -262144
0;
#X obj 201 222 cnv 15 200 120 empty empty AMP 8 12 1 14 -260818 -262144
0;
#X obj 101 101 cnv 15 300 120 empty empty FILTER 8 12 1 14 -62784 -262144
0;
#X obj 322 256 vsl 12 60 0 0.3 0 0 empty empty L 0 -8 1 8 -262144 -1
-262144 0 1;
#X obj 285 133 vsl 12 60 0 2000 0 0 empty empty LEV 0 -8 1 8 -262144
-1 -262144 1298 1;
#X obj 116 133 vsl 12 60 0 2000 0 1 empty empty A 0 -8 1 8 -262144
-1 -262144 398 1;
#X obj 156 133 vsl 12 60 0 2000 0 1 empty empty D 0 -8 1 8 -262144
-1 -262144 5900 1;
#X obj 246 133 vsl 12 60 0 3000 0 0 empty empty AMT 0 -8 1 8 -262144
-1 -262144 199 1;
#X obj 157 255 vsl 12 60 0 1 0 0 empty empty FAT 0 -8 1 8 -262144 -1
-262144 0 1;
#X obj 324 133 vsl 12 60 0.5 6 0 0 empty empty RES 0 -8 1 8 -262144
-33289 -262144 0 1;
#X obj 244 256 vsl 12 60 0 2000 0 1 empty empty A 0 -8 1 8 -262144
-1 -262144 5900 1;
#X obj 283 256 vsl 12 60 0 2000 0 1 empty empty D 0 -8 1 8 -262144
-1 -262144 5900 1;
#X obj 53 389 s \$0-oscf;
#X obj 130 390 s \$0-oscfat;
#X obj 54 360 s \$0-fenva;
#X obj 131 359 s \$0-fenvd;
#X obj 217 390 s \$0-aenva;
#X obj 295 390 s \$0-aenvd;
#X obj 374 390 s \$0-amp;
#X obj 377 358 s \$0-fres;
#X obj 218 360 s \$0-frng;
#X obj 298 359 s \$0-frle;
#X obj 322 324 nbx 3 14 -1e+37 1e+37 0 0 empty empty empty 0 -6 0 10
-260818 -1 -1 0 256;
#X obj 283 324 nbx 3 14 -1e+37 1e+37 0 0 empty empty empty 0 -6 0 10
-260818 -1 -1 2000 256;
#X obj 244 324 nbx 3 14 -1e+37 1e+37 0 0 empty empty empty 0 -6 0 10
-260818 -1 -1 2000 256;
#X obj 157 321 nbx 3 14 -1e+37 1e+37 0 0 empty empty empty 0 -6 0 10
-258699 -262144 -1 0 256;
#X obj 112 322 nbx 3 14 -1e+37 1e+37 0 0 empty empty empty 0 -6 0 10
-258699 -262144 -1 0 256;
#X obj 324 203 nbx 3 14 -1e+37 1e+37 0 0 empty empty empty 0 -6 0 10
-62784 -262144 -1 0.5 256;
#X obj 285 203 nbx 3 14 -1e+37 1e+37 0 0 empty empty empty 0 -6 0 10
-62784 -262144 -1 440 256;
#X obj 246 203 nbx 3 14 -1e+37 1e+37 0 0 empty empty empty 0 -6 0 10
-62784 -262144 -1 101.186 256;
#X obj 156 203 nbx 3 14 -1e+37 1e+37 0 0 empty empty empty 0 -6 0 10
-62784 -262144 -1 2000 256;
#X obj 116 203 nbx 3 14 -1e+37 1e+37 0 0 empty empty empty 0 -6 0 10
-62784 -262144 -1 134.915 256;
#X obj 112 254 vradio 12 1 0 5 empty empty OCT 0 -6 1 8 -262144 -1
-262144 0;
#X obj 450 149 r ampDecay;
#X obj 156 39 r filterDecay;
#X obj 23 12 loadbang;
#X msg 17 69 135;
#X msg 55 45 +;
#X obj 442 18 loadbang;
#X msg 433 74 101;
#X msg 481 53 440;
#X msg 493 91 0.5;
#X connect 3 0 18 0;
#X connect 3 0 22 0;
#X connect 4 0 21 0;
#X connect 4 0 28 0;
#X connect 5 0 14 0;
#X connect 5 0 31 0;
#X connect 6 0 15 0;
#X connect 6 0 30 0;
#X connect 7 0 20 0;
#X connect 7 0 29 0;
#X connect 8 0 13 0;
#X connect 8 0 25 0;
#X connect 9 0 19 0;
#X connect 9 0 27 0;
#X connect 10 0 16 0;
#X connect 10 0 24 0;
#X connect 11 0 17 0;
#X connect 11 0 23 0;
#X connect 32 0 26 0;
#X connect 32 0 12 0;
#X connect 33 0 11 0;
#X connect 34 0 6 0;
#X connect 35 0 36 0;
#X connect 35 0 37 0;
#X connect 36 0 5 0;
#X connect 37 0 6 0;
#X connect 38 0 39 0;
#X connect 38 0 40 0;
#X connect 38 0 41 0;
#X connect 39 0 7 0;
#X connect 40 0 4 0;
#X connect 41 0 9 0;
#X coords 0 -1 1 1 300 240 1 100 100;
#X restore 169 14 pd interface;
#N canvas 2725 85 471 666 synth 0;
#X obj 163 577 *~ 0.2;
#X obj 162 463 bp~ 100 3;
#X obj 162 489 hip~ 60;
#N canvas 0 86 450 300 envelope 0;
#X obj 175 243 line;
#X msg 194 219 1 \$1;
#X msg 150 218 0 \$1;
#X obj 150 146 t b b;
#X obj 175 267 outlet;
#X obj 187 46 inlet attack;
#X obj 289 45 inlet decay;
#X obj 77 46 inlet trigger;
#X obj 187 87 t f f;
#X obj 150 196 f 50;
#X obj 194 197 f 50;
#X text 235 199 <-- default values 50 ms;
#X text 236 88 <-- set floats nicely;
#X obj 150 173 del 50;
#X text 151 9 envelope subpatch;
#X connect 0 0 4 0;
#X connect 1 0 0 0;
#X connect 2 0 0 0;
#X connect 3 0 13 0;
#X connect 3 1 10 0;
#X connect 5 0 8 0;
#X connect 6 0 9 1;
#X connect 7 0 3 0;
#X connect 8 0 13 1;
#X connect 8 1 10 1;
#X connect 9 0 2 0;
#X connect 10 0 1 0;
#X connect 13 0 9 0;
#X restore 191 303 pd envelope;
#X obj 191 371 * 3000;
#N canvas 730 173 450 300 fatoscillator 0;
#X obj 113 206 +~;
#X obj 61 165 -~ 0.5;
#X obj 147 164 -~ 0.5;
#X obj 60 8 inlet pitch;
#X obj 146 108 +;
#X obj 60 109 -;
#X obj 149 7 inlet fatness;
#X obj 149 31 * 5;
#X obj 112 238 outlet~;
#X obj 60 137 phasor~ 55;
#X obj 146 136 phasor~ 55;
#X obj 149 53 t b b f f;
#X connect 0 0 8 0;
#X connect 1 0 0 0;
#X connect 2 0 0 1;
#X connect 3 0 5 0;
#X connect 3 0 4 0;
#X connect 4 0 10 0;
#X connect 5 0 9 0;
#X connect 6 0 7 0;
#X connect 7 0 11 0;
#X connect 9 0 1 0;
#X connect 10 0 2 0;
#X connect 11 0 5 0;
#X connect 11 1 4 0;
#X connect 11 2 5 1;
#X connect 11 3 4 1;
#X restore 162 240 pd fatoscillator;
#X obj 201 414 t b f;
#X obj 199 347 t b f;
#X obj 191 438 + 20;
#N canvas 3213 98 450 300 envelope 0;
#X obj 175 243 line;
#X msg 194 219 1 \$1;
#X msg 150 218 0 \$1;
#X obj 150 146 t b b;
#X obj 175 267 outlet;
#X obj 187 46 inlet attack;
#X obj 289 45 inlet decay;
#X obj 77 46 inlet trigger;
#X obj 187 87 t f f;
#X obj 150 196 f 50;
#X obj 194 197 f 50;
#X text 235 199 <-- default values 50 ms;
#X text 236 88 <-- set floats nicely;
#X obj 150 173 del 50;
#X text 151 9 envelope subpatch;
#X msg 74 217 0 50;
#X obj 74 195 r bassStop;
#X connect 0 0 4 0;
#X connect 1 0 0 0;
#X connect 2 0 0 0;
#X connect 3 0 13 0;
#X connect 3 1 10 0;
#X connect 5 0 8 0;
#X connect 6 0 9 1;
#X connect 7 0 3 0;
#X connect 8 0 13 1;
#X connect 8 1 10 1;
#X connect 9 0 2 0;
#X connect 10 0 1 0;
#X connect 13 0 9 0;
#X connect 15 0 0 0;
#X connect 16 0 15 0;
#X restore 179 517 pd envelope;
#X obj 163 540 *~;
#X obj 162 90 r \$0-oscf;
#X obj 269 213 r \$0-oscfat;
#X obj 227 277 r \$0-fenva;
#X obj 264 256 r \$0-fenvd;
#X obj 215 482 r \$0-aenva;
#X obj 251 458 r \$0-aenvd;
#X obj 200 552 r \$0-amp;
#X obj 226 438 r \$0-fres;
#X obj 199 325 r \$0-frng;
#X obj 201 393 r \$0-frle;
#X obj 162 607 outlet~;
#X obj 231 64 inlet;
#X obj 261 172 t b b;
#X obj 231 89 t f b;
#X obj 162 215 mtof;
#X obj 162 139 * 12;
#X obj 162 192 +;
#X obj 162 115 - 2;
#X obj 171 162 t b f;
#X text -29 140 times 12 to get octaves ->;
#X text -30 113 offset for negative ----->;
#X text -31 85 octave shift in --------->;
#X text -27 213 midi convert ------------>;
#X text -29 189 add to incomming note --->;
#X connect 0 0 21 0;
#X connect 1 0 2 0;
#X connect 2 0 10 0;
#X connect 3 0 4 0;
#X connect 4 0 8 0;
#X connect 5 0 1 0;
#X connect 6 0 8 0;
#X connect 6 1 8 1;
#X connect 7 0 4 0;
#X connect 7 1 4 1;
#X connect 8 0 1 1;
#X connect 9 0 10 1;
#X connect 10 0 0 0;
#X connect 11 0 28 0;
#X connect 12 0 5 1;
#X connect 13 0 3 1;
#X connect 14 0 3 2;
#X connect 15 0 9 1;
#X connect 16 0 9 2;
#X connect 17 0 0 1;
#X connect 18 0 1 2;
#X connect 19 0 7 0;
#X connect 20 0 6 0;
#X connect 22 0 24 0;
#X connect 23 0 9 0;
#X connect 23 1 3 0;
#X connect 24 0 29 0;
#X connect 24 1 23 0;
#X connect 25 0 5 0;
#X connect 26 0 27 0;
#X connect 27 0 25 0;
#X connect 28 0 26 0;
#X connect 29 0 27 0;
#X connect 29 1 27 1;
#X restore 15 151 pd synth;
#N canvas 3233 85 471 666 synth 0;
#X obj 163 577 *~ 0.2;
#X obj 162 463 bp~ 100 3;
#X obj 162 489 hip~ 60;
#N canvas 0 86 450 300 envelope 0;
#X obj 175 243 line;
#X msg 194 219 1 \$1;
#X msg 150 218 0 \$1;
#X obj 150 146 t b b;
#X obj 175 267 outlet;
#X obj 187 46 inlet attack;
#X obj 289 45 inlet decay;
#X obj 77 46 inlet trigger;
#X obj 187 87 t f f;
#X obj 150 196 f 50;
#X obj 194 197 f 50;
#X text 235 199 <-- default values 50 ms;
#X text 236 88 <-- set floats nicely;
#X obj 150 173 del 50;
#X text 151 9 envelope subpatch;
#X connect 0 0 4 0;
#X connect 1 0 0 0;
#X connect 2 0 0 0;
#X connect 3 0 13 0;
#X connect 3 1 10 0;
#X connect 5 0 8 0;
#X connect 6 0 9 1;
#X connect 7 0 3 0;
#X connect 8 0 13 1;
#X connect 8 1 10 1;
#X connect 9 0 2 0;
#X connect 10 0 1 0;
#X connect 13 0 9 0;
#X restore 191 303 pd envelope;
#X obj 191 371 * 3000;
#N canvas 730 173 450 300 fatoscillator 0;
#X obj 113 206 +~;
#X obj 61 165 -~ 0.5;
#X obj 147 164 -~ 0.5;
#X obj 60 8 inlet pitch;
#X obj 146 108 +;
#X obj 60 109 -;
#X obj 149 7 inlet fatness;
#X obj 149 31 * 5;
#X obj 112 238 outlet~;
#X obj 60 137 phasor~ 55;
#X obj 146 136 phasor~ 55;
#X obj 149 53 t b b f f;
#X connect 0 0 8 0;
#X connect 1 0 0 0;
#X connect 2 0 0 1;
#X connect 3 0 5 0;
#X connect 3 0 4 0;
#X connect 4 0 10 0;
#X connect 5 0 9 0;
#X connect 6 0 7 0;
#X connect 7 0 11 0;
#X connect 9 0 1 0;
#X connect 10 0 2 0;
#X connect 11 0 5 0;
#X connect 11 1 4 0;
#X connect 11 2 5 1;
#X connect 11 3 4 1;
#X restore 162 240 pd fatoscillator;
#X obj 201 414 t b f;
#X obj 199 347 t b f;
#X obj 191 438 + 20;
#N canvas 894 274 450 300 envelope 0;
#X obj 175 243 line;
#X msg 194 219 1 \$1;
#X msg 150 218 0 \$1;
#X obj 150 146 t b b;
#X obj 175 267 outlet;
#X obj 187 46 inlet attack;
#X obj 289 45 inlet decay;
#X obj 77 46 inlet trigger;
#X obj 187 87 t f f;
#X obj 150 196 f 50;
#X obj 194 197 f 50;
#X text 235 199 <-- default values 50 ms;
#X text 236 88 <-- set floats nicely;
#X obj 150 173 del 50;
#X text 151 9 envelope subpatch;
#X msg 74 217 0 50;
#X obj 74 195 r bassStop;
#X connect 0 0 4 0;
#X connect 1 0 0 0;
#X connect 2 0 0 0;
#X connect 3 0 13 0;
#X connect 3 1 10 0;
#X connect 5 0 8 0;
#X connect 6 0 9 1;
#X connect 7 0 3 0;
#X connect 8 0 13 1;
#X connect 8 1 10 1;
#X connect 9 0 2 0;
#X connect 10 0 1 0;
#X connect 13 0 9 0;
#X connect 15 0 0 0;
#X connect 16 0 15 0;
#X restore 179 517 pd envelope;
#X obj 163 540 *~;
#X obj 162 90 r \$0-oscf;
#X obj 269 213 r \$0-oscfat;
#X obj 227 277 r \$0-fenva;
#X obj 264 256 r \$0-fenvd;
#X obj 215 482 r \$0-aenva;
#X obj 251 458 r \$0-aenvd;
#X obj 200 552 r \$0-amp;
#X obj 226 438 r \$0-fres;
#X obj 199 325 r \$0-frng;
#X obj 201 393 r \$0-frle;
#X obj 162 607 outlet~;
#X obj 231 64 inlet;
#X obj 261 172 t b b;
#X obj 231 89 t f b;
#X obj 162 215 mtof;
#X obj 162 139 * 12;
#X obj 162 192 +;
#X obj 162 115 - 2;
#X obj 171 162 t b f;
#X text -29 140 times 12 to get octaves ->;
#X text -30 113 offset for negative ----->;
#X text -31 85 octave shift in --------->;
#X text -27 213 midi convert ------------>;
#X text -29 189 add to incomming note --->;
#X connect 0 0 21 0;
#X connect 1 0 2 0;
#X connect 2 0 10 0;
#X connect 3 0 4 0;
#X connect 4 0 8 0;
#X connect 5 0 1 0;
#X connect 6 0 8 0;
#X connect 6 1 8 1;
#X connect 7 0 4 0;
#X connect 7 1 4 1;
#X connect 8 0 1 1;
#X connect 9 0 10 1;
#X connect 10 0 0 0;
#X connect 11 0 28 0;
#X connect 12 0 5 1;
#X connect 13 0 3 1;
#X connect 14 0 3 2;
#X connect 15 0 9 1;
#X connect 16 0 9 2;
#X connect 17 0 0 1;
#X connect 18 0 1 2;
#X connect 19 0 7 0;
#X connect 20 0 6 0;
#X connect 22 0 24 0;
#X connect 23 0 9 0;
#X connect 23 1 3 0;
#X connect 24 0 29 0;
#X connect 24 1 23 0;
#X connect 25 0 5 0;
#X connect 26 0 27 0;
#X connect 27 0 25 0;
#X connect 28 0 26 0;
#X connect 29 0 27 0;
#X connect 29 1 27 1;
#X restore 57 129 pd synth;
#X obj 15 92 + 12;
#X obj 58 92 + 24;
#N canvas 1110 115 471 666 synth 0;
#X obj 163 577 *~ 0.2;
#X obj 162 463 bp~ 100 3;
#X obj 162 489 hip~ 60;
#N canvas 0 86 450 300 envelope 0;
#X obj 175 243 line;
#X msg 194 219 1 \$1;
#X msg 150 218 0 \$1;
#X obj 150 146 t b b;
#X obj 175 267 outlet;
#X obj 187 46 inlet attack;
#X obj 289 45 inlet decay;
#X obj 77 46 inlet trigger;
#X obj 187 87 t f f;
#X obj 150 196 f 50;
#X obj 194 197 f 50;
#X text 235 199 <-- default values 50 ms;
#X text 236 88 <-- set floats nicely;
#X obj 150 173 del 50;
#X text 151 9 envelope subpatch;
#X connect 0 0 4 0;
#X connect 1 0 0 0;
#X connect 2 0 0 0;
#X connect 3 0 13 0;
#X connect 3 1 10 0;
#X connect 5 0 8 0;
#X connect 6 0 9 1;
#X connect 7 0 3 0;
#X connect 8 0 13 1;
#X connect 8 1 10 1;
#X connect 9 0 2 0;
#X connect 10 0 1 0;
#X connect 13 0 9 0;
#X restore 191 303 pd envelope;
#X obj 191 371 * 3000;
#N canvas 730 173 450 300 fatoscillator 0;
#X obj 113 206 +~;
#X obj 61 165 -~ 0.5;
#X obj 147 164 -~ 0.5;
#X obj 60 8 inlet pitch;
#X obj 146 108 +;
#X obj 60 109 -;
#X obj 149 7 inlet fatness;
#X obj 149 31 * 5;
#X obj 112 238 outlet~;
#X obj 60 137 phasor~ 55;
#X obj 146 136 phasor~ 55;
#X obj 149 53 t b b f f;
#X connect 0 0 8 0;
#X connect 1 0 0 0;
#X connect 2 0 0 1;
#X connect 3 0 5 0;
#X connect 3 0 4 0;
#X connect 4 0 10 0;
#X connect 5 0 9 0;
#X connect 6 0 7 0;
#X connect 7 0 11 0;
#X connect 9 0 1 0;
#X connect 10 0 2 0;
#X connect 11 0 5 0;
#X connect 11 1 4 0;
#X connect 11 2 5 1;
#X connect 11 3 4 1;
#X restore 162 240 pd fatoscillator;
#X obj 201 414 t b f;
#X obj 199 347 t b f;
#X obj 191 438 + 20;
#N canvas 491 129 450 300 envelope 0;
#X obj 175 243 line;
#X msg 194 219 1 \$1;
#X msg 150 218 0 \$1;
#X obj 150 146 t b b;
#X obj 175 267 outlet;
#X obj 187 46 inlet attack;
#X obj 289 45 inlet decay;
#X obj 77 46 inlet trigger;
#X obj 187 87 t f f;
#X obj 150 196 f 50;
#X obj 194 197 f 50;
#X text 235 199 <-- default values 50 ms;
#X text 236 88 <-- set floats nicely;
#X obj 150 173 del 50;
#X text 151 9 envelope subpatch;
#X msg 74 217 0 50;
#X obj 74 195 r bassStop;
#X connect 0 0 4 0;
#X connect 1 0 0 0;
#X connect 2 0 0 0;
#X connect 3 0 13 0;
#X connect 3 1 10 0;
#X connect 5 0 8 0;
#X connect 6 0 9 1;
#X connect 7 0 3 0;
#X connect 8 0 13 1;
#X connect 8 1 10 1;
#X connect 9 0 2 0;
#X connect 10 0 1 0;
#X connect 13 0 9 0;
#X connect 15 0 0 0;
#X connect 16 0 15 0;
#X restore 179 517 pd envelope;
#X obj 163 540 *~;
#X obj 162 90 r \$0-oscf;
#X obj 269 213 r \$0-oscfat;
#X obj 227 277 r \$0-fenva;
#X obj 264 256 r \$0-fenvd;
#X obj 215 482 r \$0-aenva;
#X obj 251 458 r \$0-aenvd;
#X obj 200 552 r \$0-amp;
#X obj 226 438 r \$0-fres;
#X obj 199 325 r \$0-frng;
#X obj 201 393 r \$0-frle;
#X obj 162 607 outlet~;
#X obj 231 64 inlet;
#X obj 261 172 t b b;
#X obj 231 89 t f b;
#X obj 162 215 mtof;
#X obj 162 139 * 12;
#X obj 162 192 +;
#X obj 162 115 - 2;
#X obj 171 162 t b f;
#X text -29 140 times 12 to get octaves ->;
#X text -30 113 offset for negative ----->;
#X text -31 85 octave shift in --------->;
#X text -27 213 midi convert ------------>;
#X text -29 189 add to incomming note --->;
#X connect 0 0 21 0;
#X connect 1 0 2 0;
#X connect 2 0 10 0;
#X connect 3 0 4 0;
#X connect 4 0 8 0;
#X connect 5 0 1 0;
#X connect 6 0 8 0;
#X connect 6 1 8 1;
#X connect 7 0 4 0;
#X connect 7 1 4 1;
#X connect 8 0 1 1;
#X connect 9 0 10 1;
#X connect 10 0 0 0;
#X connect 11 0 28 0;
#X connect 12 0 5 1;
#X connect 13 0 3 1;
#X connect 14 0 3 2;
#X connect 15 0 9 1;
#X connect 16 0 9 2;
#X connect 17 0 0 1;
#X connect 18 0 1 2;
#X connect 19 0 7 0;
#X connect 20 0 6 0;
#X connect 22 0 24 0;
#X connect 23 0 9 0;
#X connect 23 1 3 0;
#X connect 24 0 29 0;
#X connect 24 1 23 0;
#X connect 25 0 5 0;
#X connect 26 0 27 0;
#X connect 27 0 25 0;
#X connect 28 0 26 0;
#X connect 29 0 27 0;
#X connect 29 1 27 1;
#X restore 100 151 pd synth;
#X obj 101 92 + 36;
#X obj 100 191 *~ 0.2;
#X obj 57 191 *~ 0.4;
#X obj 15 191 *~ 0.4;
#X connect 0 0 5 0;
#X connect 0 0 6 0;
#X connect 0 0 8 0;
#X connect 3 0 11 0;
#X connect 4 0 10 0;
#X connect 5 0 3 0;
#X connect 6 0 4 0;
#X connect 7 0 9 0;
#X connect 8 0 7 0;
#X connect 9 0 1 0;
#X connect 10 0 1 0;
#X connect 11 0 1 0;
#X restore 247 280 pd synthcut;
#X obj 56 168 vsl 15 128 0 127 0 0 empty empty empty 0 -9 0 10 -262144
-1 -1 9600 1;
#X obj 356 167 vsl 15 128 0 127 0 0 empty empty empty 0 -9 0 10 -262144
-1 -1 1400 1;
#X obj 56 304 / 127;
#X obj 356 303 / 127;
#X obj 56 326 pack 0 10;
#X obj 356 325 pack 0 10;
#X obj 56 348 vline~;
#X obj 356 347 vline~;
#X obj 156 378 *~;
#X obj 267 372 *~;
#X obj 57 122 loadbang;
#X obj 353 121 loadbang;
#X msg 57 144 96;
#X obj 203 122 hsl 128 15 0 127 0 0 empty empty empty -2 -8 0 10 -262144
-1 -1 0 1;
#X text 216 101 Slide me to play!;
#X msg 354 143 14;
#N canvas 77 208 450 300 gain~ 0;
#X obj 80 50 inlet~;
#X obj 283 53 inlet;
#X obj 195 209 outlet~;
#X obj 195 143 *~;
#X obj 246 81 pack 10;
#X obj 246 103 vline~;
#X connect 0 0 3 0;
#X connect 1 0 4 0;
#X connect 3 0 2 0;
#X connect 4 0 5 0;
#X connect 5 0 3 1;
#X restore 252 457 pd gain~;
#X obj 454 382 loadbang;
#X msg 454 404 1;
#X text 437 361 Default volume;
#N canvas 77 208 450 300 gain~ 0;
#X obj 80 50 inlet~;
#X obj 283 53 inlet;
#X obj 195 209 outlet~;
#X obj 195 143 *~;
#X obj 246 81 pack 10;
#X obj 246 103 vline~;
#X connect 0 0 3 0;
#X connect 1 0 4 0;
#X connect 3 0 2 0;
#X connect 4 0 5 0;
#X connect 5 0 3 1;
#X restore 172 457 pd gain~;
#X obj 232 44 bng 15 250 50 0 empty empty empty 17 7 0 10 -258113 -33289
-1;
#X obj 445 121 loadbang;
#X obj 256 162 r bassNote;
#X msg 445 144 4000;
#X obj 486 166 s ampDecay;
#X obj 332 395 r bassGain;
#X obj 486 144 r bassDecay;
#X obj 232 64 s bassStop;
#X connect 0 0 1 0;
#X connect 0 1 1 1;
#X connect 1 0 4 0;
#X connect 1 0 3 0;
#X connect 3 0 13 0;
#X connect 4 0 14 0;
#X connect 5 0 7 0;
#X connect 6 0 8 0;
#X connect 7 0 9 0;
#X connect 8 0 10 0;
#X connect 9 0 11 0;
#X connect 10 0 12 0;
#X connect 11 0 13 1;
#X connect 12 0 14 1;
#X connect 13 0 25 0;
#X connect 14 0 21 0;
#X connect 15 0 17 0;
#X connect 16 0 20 0;
#X connect 17 0 5 0;
#X connect 18 0 3 0;
#X connect 18 0 4 0;
#X connect 20 0 6 0;
#X connect 21 0 2 0;
#X connect 21 0 2 1;
#X connect 22 0 23 0;
#X connect 23 0 21 1;
#X connect 23 0 25 1;
#X connect 25 0 2 0;
#X connect 25 0 2 1;
#X connect 26 0 33 0;
#X connect 27 0 29 0;
#X connect 28 0 3 0;
#X connect 28 0 4 0;
#X connect 29 0 3 1;
#X connect 29 0 30 0;
#X connect 31 0 21 1;
#X connect 31 0 25 1;
#X connect 32 0 3 1;
#X connect 32 0 30 0;
