#N canvas 272 221 1114 753 10;
#X obj 160 256 hsl 128 15 0 127 0 0 empty empty empty -2 -8 0 10 -262144
-1 -1 5100 1;
#X obj 395 641 dac~;
#X obj 222 103 bng 15 250 50 0 empty M empty 17 7 0 10 -262144 -1 -1
;
#X msg 215 154 4;
#X msg 260 153 7;
#X msg 303 151 0;
#N canvas 1023 651 450 300 sum~ 0;
#X obj 60 24 inlet~;
#X obj 59 57 *~ 0.25;
#X obj 137 24 inlet~;
#X obj 136 57 *~ 0.25;
#X obj 215 23 inlet~;
#X obj 214 56 *~ 0.25;
#X obj 299 21 inlet~;
#X obj 298 54 *~ 0.25;
#X obj 114 102 +~;
#X obj 267 102 +~;
#X obj 187 149 +~;
#X obj 188 191 outlet~;
#X connect 0 0 1 0;
#X connect 1 0 8 0;
#X connect 2 0 3 0;
#X connect 3 0 8 1;
#X connect 4 0 5 0;
#X connect 5 0 9 0;
#X connect 6 0 7 0;
#X connect 7 0 9 1;
#X connect 8 0 10 0;
#X connect 9 0 10 1;
#X connect 10 0 11 0;
#X restore 407 596 pd sum~;
#X msg 392 150 7;
#X msg 434 149 0;
#X msg 483 149 4;
#X msg 528 148 7;
#X msg 665 145 7;
#X msg 796 145 7;
#X text 252 101 M;
#X msg 347 151 3;
#X msg 571 148 11;
#X msg 620 146 3;
#X msg 707 144 10;
#X msg 754 145 4;
#X msg 841 143 10;
#X obj 330 226 f;
#X obj 440 228 f;
#X obj 559 229 f;
#X obj 223 123 t b b b;
#X obj 391 317 +;
#X obj 444 315 +;
#X obj 497 315 +;
#X obj 373 102 bng 15 250 50 0 empty m empty 17 7 0 10 -262144 -1 -1
;
#X obj 373 120 t b b b;
#X obj 523 100 bng 15 250 50 0 empty M7 empty 17 7 0 10 -262144 -1
-1;
#X obj 523 118 t b b b;
#X obj 653 99 bng 15 250 50 0 empty m7 empty 17 7 0 10 -262144 -1 -1
;
#X obj 653 117 t b b b;
#X obj 781 98 bng 15 250 50 0 empty 7 empty 17 7 0 10 -262144 -1 -1
;
#X obj 781 116 t b b b;
#X text 402 98 m;
#X text 552 96 M7;
#X text 682 95 m7;
#X text 810 94 7;
#X obj 156 225 r midiNote;
#X msg 972 140 10;
#X obj 912 95 bng 15 250 50 0 empty dim empty 17 7 0 10 -262144 -1
-1;
#X obj 912 113 t b b b;
#X text 941 91 dim;
#X msg 885 142 3;
#X msg 927 142 6;
#X obj 139 288 f;
#X obj 330 256 t b b f;
#X obj 440 258 t b b f;
#X obj 559 258 t b b f;
#X obj 732 221 loadbang;
#X msg 727 251 0.995;
#X msg 770 251 5700;
#X obj 697 345 s \$0-width_ctrl;
#X obj 727 321 s \$0-decay_ctrl;
#X obj 770 300 s \$0-cutoff_ctrl;
#X msg 697 251 8;
#X obj 803 277 s \$0-strum_speed_ctrl;
#X msg 810 252 8;
#X obj 831 523 s \$0-width;
#X obj 874 502 s \$0-decay;
#X obj 915 482 s \$0-cutoff;
#X obj 841 355 hsl 180 15 1 40 0 0 empty \$0-width_ctrl width -2 -8
1 10 -262144 -1 -1 3213 1;
#X obj 840 386 hsl 180 15 0.9 0.999 0 0 empty \$0-decay_ctrl decay
-2 -8 1 10 -262144 -1 -1 17177 1;
#X obj 840 416 hsl 180 15 100 8000 0 0 empty \$0-cutoff_ctrl cutoff
-2 -8 1 10 -262144 -1 -1 12689 1;
#X obj 456 418 r \$0-width;
#X obj 539 419 r \$0-decay;
#X obj 614 421 r \$0-cutoff;
#N canvas 57 281 614 444 karpluck~ 0;
#X obj 58 44 inlet midi_note;
#X obj 140 132 inlet width;
#X obj 173 218 inlet decay;
#X obj 252 219 inlet cutoff;
#X obj 59 328 outlet~;
#N canvas 350 611 194 221 excitation~ 0;
#X obj 31 18 inlet midi_note;
#X obj 101 39 inlet width;
#X obj 30 120 vline~;
#X obj 100 123 noise~;
#X obj 30 154 *~;
#X obj 30 181 outlet~;
#X obj 30 44 bang;
#X obj 74 69 del 5;
#X msg 30 87 1 1;
#X msg 74 90 0 1;
#X connect 0 0 6 0;
#X connect 1 0 7 1;
#X connect 2 0 4 0;
#X connect 3 0 4 1;
#X connect 4 0 5 0;
#X connect 6 0 8 0;
#X connect 6 0 7 0;
#X connect 7 0 9 0;
#X connect 8 0 2 0;
#X connect 9 0 2 0;
#X restore 59 156 pd excitation~;
#N canvas 91 401 669 524 body~ 0;
#X obj 75 232 inlet~;
#X obj 221 274 outlet~;
#X obj 376 -12 block~ 1;
#X obj 75 270 delwrite~ \$0-dl 1000;
#X obj 99 131 delread~ \$0-dl 12;
#X obj 221 179 lop~ 4000;
#X obj 221 226 *~ 0.99;
#X obj 99 -22 mtof;
#X obj 99 8 t b f;
#X obj 99 69 /;
#X msg 92 43 1;
#X obj 99 99 * 1000;
#X obj 99 -55 inlet midi_note;
#X obj 260 202 inlet decay;
#X obj 272 154 inlet cutoff;
#X text 375 -55 Block size needs to be 1 sample for this subpatch to
ensure correct tuning and operation for delay line feedback;
#X text 151 70 Convert a midi note into the required delay line length
(in ms) to generate said pitch.;
#X connect 0 0 3 0;
#X connect 4 0 5 0;
#X connect 5 0 6 0;
#X connect 6 0 1 0;
#X connect 6 0 3 0;
#X connect 7 0 8 0;
#X connect 8 0 10 0;
#X connect 8 1 9 1;
#X connect 9 0 11 0;
#X connect 10 0 9 0;
#X connect 11 0 4 0;
#X connect 12 0 7 0;
#X connect 13 0 6 1;
#X connect 14 0 5 1;
#X restore 59 278 pd body~;
#X obj 58 68 s \$0-midi_note;
#X obj 59 113 r \$0-midi_note;
#X obj 74 204 r \$0-midi_note;
#X text 151 154 excitation generates a short noise burst the specied
width;
#X text 118 278 body filters the excitation noise in a pitch specific
delay line;
#X connect 0 0 7 0;
#X connect 1 0 5 1;
#X connect 2 0 6 2;
#X connect 3 0 6 3;
#X connect 5 0 6 0;
#X connect 6 0 4 0;
#X connect 8 0 5 0;
#X connect 9 0 6 1;
#X restore 251 482 pd karpluck~;
#N canvas 60 275 614 444 karpluck~ 0;
#X obj 58 44 inlet midi_note;
#X obj 140 132 inlet width;
#X obj 173 218 inlet decay;
#X obj 252 219 inlet cutoff;
#X obj 59 328 outlet~;
#N canvas 350 611 194 221 excitation~ 0;
#X obj 31 18 inlet midi_note;
#X obj 101 39 inlet width;
#X obj 30 120 vline~;
#X obj 100 123 noise~;
#X obj 30 154 *~;
#X obj 30 181 outlet~;
#X obj 30 44 bang;
#X obj 74 69 del 5;
#X msg 30 87 1 1;
#X msg 74 90 0 1;
#X connect 0 0 6 0;
#X connect 1 0 7 1;
#X connect 2 0 4 0;
#X connect 3 0 4 1;
#X connect 4 0 5 0;
#X connect 6 0 8 0;
#X connect 6 0 7 0;
#X connect 7 0 9 0;
#X connect 8 0 2 0;
#X connect 9 0 2 0;
#X restore 59 156 pd excitation~;
#N canvas 94 395 669 524 body~ 0;
#X obj 75 232 inlet~;
#X obj 221 274 outlet~;
#X obj 376 -12 block~ 1;
#X obj 75 270 delwrite~ \$0-dl 1000;
#X obj 99 131 delread~ \$0-dl 12;
#X obj 221 179 lop~ 4000;
#X obj 221 226 *~ 0.99;
#X obj 99 -22 mtof;
#X obj 99 8 t b f;
#X obj 99 69 /;
#X msg 92 43 1;
#X obj 99 99 * 1000;
#X obj 99 -55 inlet midi_note;
#X obj 260 202 inlet decay;
#X obj 272 154 inlet cutoff;
#X text 375 -55 Block size needs to be 1 sample for this subpatch to
ensure correct tuning and operation for delay line feedback;
#X text 151 70 Convert a midi note into the required delay line length
(in ms) to generate said pitch.;
#X connect 0 0 3 0;
#X connect 4 0 5 0;
#X connect 5 0 6 0;
#X connect 6 0 1 0;
#X connect 6 0 3 0;
#X connect 7 0 8 0;
#X connect 8 0 10 0;
#X connect 8 1 9 1;
#X connect 9 0 11 0;
#X connect 10 0 9 0;
#X connect 11 0 4 0;
#X connect 12 0 7 0;
#X connect 13 0 6 1;
#X connect 14 0 5 1;
#X restore 59 278 pd body~;
#X obj 58 68 s \$0-midi_note;
#X obj 59 113 r \$0-midi_note;
#X obj 74 204 r \$0-midi_note;
#X text 151 154 excitation generates a short noise burst the specied
width;
#X text 118 278 body filters the excitation noise in a pitch specific
delay line;
#X connect 0 0 7 0;
#X connect 1 0 5 1;
#X connect 2 0 6 2;
#X connect 3 0 6 3;
#X connect 5 0 6 0;
#X connect 6 0 4 0;
#X connect 8 0 5 0;
#X connect 9 0 6 1;
#X restore 356 480 pd karpluck~;
#N canvas 60 275 614 444 karpluck~ 0;
#X obj 58 44 inlet midi_note;
#X obj 140 132 inlet width;
#X obj 173 218 inlet decay;
#X obj 252 219 inlet cutoff;
#X obj 59 328 outlet~;
#N canvas 350 611 194 221 excitation~ 0;
#X obj 31 18 inlet midi_note;
#X obj 101 39 inlet width;
#X obj 30 120 vline~;
#X obj 100 123 noise~;
#X obj 30 154 *~;
#X obj 30 181 outlet~;
#X obj 30 44 bang;
#X obj 74 69 del 5;
#X msg 30 87 1 1;
#X msg 74 90 0 1;
#X connect 0 0 6 0;
#X connect 1 0 7 1;
#X connect 2 0 4 0;
#X connect 3 0 4 1;
#X connect 4 0 5 0;
#X connect 6 0 8 0;
#X connect 6 0 7 0;
#X connect 7 0 9 0;
#X connect 8 0 2 0;
#X connect 9 0 2 0;
#X restore 59 156 pd excitation~;
#N canvas 94 395 669 524 body~ 0;
#X obj 75 232 inlet~;
#X obj 221 274 outlet~;
#X obj 376 -12 block~ 1;
#X obj 75 270 delwrite~ \$0-dl 1000;
#X obj 99 131 delread~ \$0-dl 12;
#X obj 221 179 lop~ 4000;
#X obj 221 226 *~ 0.99;
#X obj 99 -22 mtof;
#X obj 99 8 t b f;
#X obj 99 69 /;
#X msg 92 43 1;
#X obj 99 99 * 1000;
#X obj 99 -55 inlet midi_note;
#X obj 260 202 inlet decay;
#X obj 272 154 inlet cutoff;
#X text 375 -55 Block size needs to be 1 sample for this subpatch to
ensure correct tuning and operation for delay line feedback;
#X text 151 70 Convert a midi note into the required delay line length
(in ms) to generate said pitch.;
#X connect 0 0 3 0;
#X connect 4 0 5 0;
#X connect 5 0 6 0;
#X connect 6 0 1 0;
#X connect 6 0 3 0;
#X connect 7 0 8 0;
#X connect 8 0 10 0;
#X connect 8 1 9 1;
#X connect 9 0 11 0;
#X connect 10 0 9 0;
#X connect 11 0 4 0;
#X connect 12 0 7 0;
#X connect 13 0 6 1;
#X connect 14 0 5 1;
#X restore 59 278 pd body~;
#X obj 58 68 s \$0-midi_note;
#X obj 59 113 r \$0-midi_note;
#X obj 74 204 r \$0-midi_note;
#X text 151 154 excitation generates a short noise burst the specied
width;
#X text 118 278 body filters the excitation noise in a pitch specific
delay line;
#X connect 0 0 7 0;
#X connect 1 0 5 1;
#X connect 2 0 6 2;
#X connect 3 0 6 3;
#X connect 5 0 6 0;
#X connect 6 0 4 0;
#X connect 8 0 5 0;
#X connect 9 0 6 1;
#X restore 462 479 pd karpluck~;
#N canvas 60 275 614 444 karpluck~ 0;
#X obj 58 44 inlet midi_note;
#X obj 140 132 inlet width;
#X obj 173 218 inlet decay;
#X obj 252 219 inlet cutoff;
#X obj 59 328 outlet~;
#N canvas 350 611 194 221 excitation~ 0;
#X obj 31 18 inlet midi_note;
#X obj 101 39 inlet width;
#X obj 30 120 vline~;
#X obj 100 123 noise~;
#X obj 30 154 *~;
#X obj 30 181 outlet~;
#X obj 30 44 bang;
#X obj 74 69 del 5;
#X msg 30 87 1 1;
#X msg 74 90 0 1;
#X connect 0 0 6 0;
#X connect 1 0 7 1;
#X connect 2 0 4 0;
#X connect 3 0 4 1;
#X connect 4 0 5 0;
#X connect 6 0 8 0;
#X connect 6 0 7 0;
#X connect 7 0 9 0;
#X connect 8 0 2 0;
#X connect 9 0 2 0;
#X restore 59 156 pd excitation~;
#N canvas 94 395 669 524 body~ 0;
#X obj 75 232 inlet~;
#X obj 221 274 outlet~;
#X obj 376 -12 block~ 1;
#X obj 75 270 delwrite~ \$0-dl 1000;
#X obj 99 131 delread~ \$0-dl 12;
#X obj 221 179 lop~ 4000;
#X obj 221 226 *~ 0.99;
#X obj 99 -22 mtof;
#X obj 99 8 t b f;
#X obj 99 69 /;
#X msg 92 43 1;
#X obj 99 99 * 1000;
#X obj 99 -55 inlet midi_note;
#X obj 260 202 inlet decay;
#X obj 272 154 inlet cutoff;
#X text 375 -55 Block size needs to be 1 sample for this subpatch to
ensure correct tuning and operation for delay line feedback;
#X text 151 70 Convert a midi note into the required delay line length
(in ms) to generate said pitch.;
#X connect 0 0 3 0;
#X connect 4 0 5 0;
#X connect 5 0 6 0;
#X connect 6 0 1 0;
#X connect 6 0 3 0;
#X connect 7 0 8 0;
#X connect 8 0 10 0;
#X connect 8 1 9 1;
#X connect 9 0 11 0;
#X connect 10 0 9 0;
#X connect 11 0 4 0;
#X connect 12 0 7 0;
#X connect 13 0 6 1;
#X connect 14 0 5 1;
#X restore 59 278 pd body~;
#X obj 58 68 s \$0-midi_note;
#X obj 59 113 r \$0-midi_note;
#X obj 74 204 r \$0-midi_note;
#X text 151 154 excitation generates a short noise burst the specied
width;
#X text 118 278 body filters the excitation noise in a pitch specific
delay line;
#X connect 0 0 7 0;
#X connect 1 0 5 1;
#X connect 2 0 6 2;
#X connect 3 0 6 3;
#X connect 5 0 6 0;
#X connect 6 0 4 0;
#X connect 8 0 5 0;
#X connect 9 0 6 1;
#X restore 564 478 pd karpluck~;
#X obj 342 368 i;
#X obj 283 361 i;
#X obj 394 385 i;
#X obj 459 388 i;
#X obj 323 329 del 15;
#X obj 379 347 del 15;
#X obj 434 362 del 15;
#X obj 244 327 t b f;
#X obj 503 345 r \$0-strum_speed;
#X obj 850 221 hsl 128 15 1 250 0 0 \$0-strum_speed empty empty -2
-8 0 10 -262144 -1 -1 2800 1;
#X connect 0 0 46 1;
#X connect 2 0 23 0;
#X connect 3 0 20 0;
#X connect 4 0 21 0;
#X connect 5 0 22 0;
#X connect 6 0 1 0;
#X connect 6 0 1 1;
#X connect 7 0 21 0;
#X connect 8 0 22 0;
#X connect 9 0 20 0;
#X connect 10 0 21 0;
#X connect 11 0 21 0;
#X connect 12 0 21 0;
#X connect 14 0 20 0;
#X connect 15 0 22 0;
#X connect 16 0 20 0;
#X connect 17 0 22 0;
#X connect 18 0 20 0;
#X connect 19 0 22 0;
#X connect 20 0 47 0;
#X connect 21 0 48 0;
#X connect 22 0 49 0;
#X connect 23 0 3 0;
#X connect 23 1 4 0;
#X connect 23 2 5 0;
#X connect 24 0 72 1;
#X connect 25 0 74 1;
#X connect 26 0 75 1;
#X connect 27 0 28 0;
#X connect 28 0 14 0;
#X connect 28 1 7 0;
#X connect 28 2 8 0;
#X connect 29 0 30 0;
#X connect 30 0 9 0;
#X connect 30 1 10 0;
#X connect 30 2 15 0;
#X connect 31 0 32 0;
#X connect 32 0 16 0;
#X connect 32 1 11 0;
#X connect 32 2 17 0;
#X connect 33 0 34 0;
#X connect 34 0 18 0;
#X connect 34 1 12 0;
#X connect 34 2 19 0;
#X connect 39 0 0 0;
#X connect 40 0 22 0;
#X connect 41 0 42 0;
#X connect 42 0 44 0;
#X connect 42 1 45 0;
#X connect 42 2 40 0;
#X connect 44 0 20 0;
#X connect 45 0 21 0;
#X connect 46 0 24 0;
#X connect 46 0 25 0;
#X connect 46 0 26 0;
#X connect 46 0 79 0;
#X connect 47 0 46 0;
#X connect 47 1 24 0;
#X connect 47 2 24 1;
#X connect 48 0 46 0;
#X connect 48 1 25 0;
#X connect 48 2 25 1;
#X connect 49 0 46 0;
#X connect 49 1 26 0;
#X connect 49 2 26 1;
#X connect 50 0 56 0;
#X connect 50 0 51 0;
#X connect 50 0 52 0;
#X connect 50 0 58 0;
#X connect 51 0 54 0;
#X connect 52 0 55 0;
#X connect 56 0 53 0;
#X connect 58 0 57 0;
#X connect 62 0 59 0;
#X connect 63 0 60 0;
#X connect 64 0 61 0;
#X connect 65 0 68 1;
#X connect 65 0 69 1;
#X connect 65 0 70 1;
#X connect 65 0 71 1;
#X connect 66 0 68 2;
#X connect 66 0 69 2;
#X connect 66 0 71 2;
#X connect 66 0 70 2;
#X connect 67 0 68 3;
#X connect 67 0 69 3;
#X connect 67 0 70 3;
#X connect 67 0 71 3;
#X connect 68 0 6 0;
#X connect 69 0 6 1;
#X connect 70 0 6 2;
#X connect 71 0 6 3;
#X connect 72 0 69 0;
#X connect 73 0 68 0;
#X connect 74 0 70 0;
#X connect 75 0 71 0;
#X connect 76 0 72 0;
#X connect 76 0 77 0;
#X connect 77 0 78 0;
#X connect 77 0 74 0;
#X connect 78 0 75 0;
#X connect 79 0 76 0;
#X connect 79 1 73 0;
#X connect 80 0 76 1;
#X connect 80 0 77 1;
#X connect 80 0 78 1;
#X connect 81 0 57 0;
