#N canvas 981 117 752 572 10;
#X obj 269 540 dac~;
#X obj 194 113 bng 100 250 50 0 empty highBeat highBeat 4 7 0 10 -258050
-1 -1;
#X obj 57 229 loadbang;
#X obj 536 121 bng 100 250 50 0 empty lowBeat lowBeat 4 7 0 10 -258602
-1 -1;
#X obj 399 244 loadbang;
#X msg 399 266 80;
#X msg 57 251 92;
#X text 53 11 Metronome component for the Gravitone project.;
#X obj 305 466 +~;
#X obj 60 337 hsl 128 15 0 127 0 0 empty empty empty -2 -8 0 10 -262144
-1 -1 9200 1;
#X obj 57 357 mtof;
#X obj 194 337 tgl 15 0 empty empty empty 17 7 0 10 -262144 -1 -1 0
1;
#X obj 193 398 vline~;
#X obj 57 379 osc~;
#X obj 108 418 *~;
#X obj 194 287 t b b;
#X obj 226 310 delay 10;
#X obj 193 376 pack f f;
#X obj 246 332 loadbang;
#X msg 246 354 2, f 2;
#X obj 402 363 hsl 128 15 0 127 0 0 empty empty empty -2 -8 0 10 -262144
-1 -1 8000 1;
#X obj 399 383 mtof;
#X obj 536 363 tgl 15 0 empty empty empty 17 7 0 10 -262144 -1 -1 0
1;
#X obj 535 424 vline~;
#X obj 399 405 osc~;
#X obj 450 444 *~;
#X obj 536 313 t b b;
#X obj 568 336 delay 10;
#X obj 535 402 pack f f;
#X obj 588 358 loadbang;
#X msg 588 380 2, f 2;
#X obj 357 508 r gain;
#X obj 420 493 loadbang;
#X msg 420 515 1;
#X text 395 470 Default volume;
#N canvas 80 202 450 300 gain~ 0;
#X obj 80 50 inlet~;
#X obj 283 53 inlet;
#X obj 195 209 outlet~;
#X obj 195 143 *~;
#X obj 246 81 pack 10;
#X obj 246 103 vline~;
#X connect 0 0 3 0;
#X connect 1 0 4 0;
#X connect 3 0 2 0;
#X connect 4 0 5 0;
#X connect 5 0 3 1;
#X restore 281 503 pd gain~;
#X connect 1 0 15 0;
#X connect 2 0 6 0;
#X connect 3 0 26 0;
#X connect 4 0 5 0;
#X connect 5 0 20 0;
#X connect 6 0 9 0;
#X connect 8 0 35 0;
#X connect 9 0 10 0;
#X connect 10 0 13 0;
#X connect 11 0 17 0;
#X connect 12 0 14 1;
#X connect 13 0 14 0;
#X connect 14 0 8 0;
#X connect 15 0 11 0;
#X connect 15 1 16 0;
#X connect 16 0 11 0;
#X connect 17 0 12 0;
#X connect 18 0 19 0;
#X connect 19 0 17 1;
#X connect 20 0 21 0;
#X connect 21 0 24 0;
#X connect 22 0 28 0;
#X connect 23 0 25 1;
#X connect 24 0 25 0;
#X connect 25 0 8 1;
#X connect 26 0 22 0;
#X connect 26 1 27 0;
#X connect 27 0 22 0;
#X connect 28 0 23 0;
#X connect 29 0 30 0;
#X connect 30 0 28 1;
#X connect 31 0 35 1;
#X connect 32 0 33 0;
#X connect 33 0 35 1;
#X connect 35 0 0 1;
#X connect 35 0 0 0;
