#N canvas 755 369 440 402 10;
#X obj 180 338 dac~;
#X obj 46 78 bng 100 250 50 0 empty highBeat highBeat 4 7 0 10 -258050
-1 -1;
#X obj 46 183 loadbang;
#X obj 276 78 bng 100 250 50 0 empty lowBeat lowBeat 4 7 0 10 -258602
-1 -1;
#X obj 280 183 loadbang;
#X msg 280 205 80;
#X msg 46 205 92;
#X text 53 11 Metronome component for the Gravitone project.;
#X obj 180 316 +~;
#X obj 46 227 soundblock;
#X obj 280 227 soundblock;
#X connect 1 0 9 1;
#X connect 2 0 6 0;
#X connect 3 0 10 1;
#X connect 4 0 5 0;
#X connect 5 0 10 0;
#X connect 6 0 9 0;
#X connect 8 0 0 0;
#X connect 8 0 0 1;
#X connect 9 0 8 0;
#X connect 10 0 8 1;
