#N canvas 738 135 450 300 10;
#X obj 57 24 hsl 128 15 0 127 0 0 empty empty empty -2 -8 0 10 -262144
-1 -1 0 1;
#X obj 54 44 mtof;
#X obj 57 245 dac~;
#X obj 121 171 tgl 15 0 empty empty empty 17 7 0 10 -262144 -1 -1 0
1;
#X obj 121 191 vline~;
#X obj 54 66 osc~;
#X obj 56 203 *~;
#X obj 130 128 t b b;
#X obj 170 154 delay 10;
#X text 180 65 premimi;
#X text 153 240 Regola lo slider e premi il tasto per avere un suono
stile metronomo.;
#X obj 125 66 bng 15 250 50 0 empty empty metro 17 7 0 10 -262144 -1
-1;
#X obj 129 94 metro 500;
#X obj 221 13 r metroControl;
#X obj 192 45 change;
#X obj 31 -3 change;
#X obj 40 -40 r metroSound;
#X obj 251 112 change;
#X obj 280 80 r metroDelay;
#X connect 0 0 1 0;
#X connect 1 0 5 0;
#X connect 3 0 4 0;
#X connect 4 0 6 1;
#X connect 5 0 6 0;
#X connect 6 0 2 0;
#X connect 6 0 2 1;
#X connect 7 0 3 0;
#X connect 7 1 8 0;
#X connect 8 0 3 0;
#X connect 11 0 12 0;
#X connect 12 0 7 0;
#X connect 13 0 14 0;
#X connect 14 0 11 0;
#X connect 15 0 1 0;
#X connect 16 0 15 0;
#X connect 17 0 8 1;
#X connect 18 0 17 0;
